<svg width="53" height="50" viewBox="0 0 53 50" fill="none" xmlns="http://www.w3.org/2000/svg">
<path d="M28.5 11.5H41.5M28.5 16.5H41.5M46.5 26.5V3.5H3V41H12C12 41 12 35 15.5 35C19 35 19 41 19 41H28.5" stroke="#47A118" stroke-width="2" stroke-linecap="round"/>
<circle cx="39" cy="35.5" r="11.5" stroke="#47A118" stroke-width="2"/>
<path d="M45.412 33.464H40.804V28.92C40.804 27.832 39.972 27 38.884 27C37.86 27 36.964 27.832 36.964 28.92V33.464H32.42C31.332 33.464 30.5 34.296 30.5 35.384C30.5 36.408 31.332 37.304 32.42 37.304H36.964V41.848C36.964 42.936 37.86 43.768 38.884 43.768C39.972 43.768 40.804 42.936 40.804 41.848V37.304H45.412C46.436 37.304 47.332 36.408 47.332 35.384C47.332 34.296 46.436 33.464 45.412 33.464Z" fill="#47A118"/>
<path d="M16.8573 22C13.6872 22 10.8681 23.5306 9.07327 25.906C8.68698 26.4172 8.49383 26.6728 8.50015 27.0183C8.50503 27.2852 8.67263 27.6219 8.88264 27.7867C9.15446 28 9.53114 28 10.2845 28H23.43C24.1834 28 24.5601 28 24.8319 27.7867C25.0419 27.6219 25.2095 27.2852 25.2144 27.0183C25.2207 26.6728 25.0276 26.4172 24.6413 25.906C22.8465 23.5306 20.0273 22 16.8573 22Z" stroke="#47A118" stroke-width="2" stroke-linecap="round" stroke-linejoin="round"/>
<path d="M16.8573 19C19.3426 19 21.3573 16.9853 21.3573 14.5C21.3573 12.0147 19.3426 10 16.8573 10C14.372 10 12.3573 12.0147 12.3573 14.5C12.3573 16.9853 14.372 19 16.8573 19Z" stroke="#47A118" stroke-width="2" stroke-linecap="round" stroke-linejoin="round"/>
</svg>
