<svg width="54" height="41" viewBox="0 0 54 41" fill="none" xmlns="http://www.w3.org/2000/svg">
<path d="M24.14 0.5H25.7504C26.0118 0.620109 26.3112 0.491848 26.5743 0.599457C26.7063 0.607609 26.839 0.609783 26.9716 0.618478C27.1042 0.6625 27.246 0.664674 27.3808 0.701087C27.4884 0.715217 27.5971 0.724457 27.7031 0.75163C27.7933 0.769022 27.8852 0.783696 27.9748 0.807609C28.065 0.823913 28.1569 0.838044 28.2466 0.861957C28.3352 0.877717 28.4248 0.891848 28.5134 0.913587C28.5857 0.932065 28.6585 0.949457 28.7303 0.971739C28.7569 0.980435 28.8096 0.998913 28.8362 1.00761C28.9074 1.0288 28.9803 1.04511 29.0531 1.06196C29.1428 1.0875 29.2341 1.10707 29.3243 1.13207C29.3792 1.15 29.4341 1.16902 29.489 1.18804C29.5449 1.20707 29.6009 1.22717 29.6563 1.24837C29.6813 1.25435 29.7319 1.26685 29.7569 1.27283C29.8123 1.29457 29.8688 1.31576 29.9254 1.33587C29.9803 1.35217 30.0357 1.36739 30.0922 1.38152C30.1449 1.41141 30.1982 1.4413 30.2515 1.4712C30.277 1.47609 30.3275 1.48587 30.3531 1.49076C30.4102 1.51087 30.4683 1.52935 30.527 1.54674C30.5781 1.57446 30.6297 1.60272 30.6813 1.63152C30.7699 1.66685 30.8602 1.69891 30.9504 1.73152C31.0243 1.76957 31.0982 1.80815 31.1716 1.84783C31.2813 1.89293 31.3933 1.9337 31.5036 1.97826C31.5906 2.02554 31.6797 2.07065 31.7678 2.11739C31.8259 2.14348 31.8841 2.17065 31.9433 2.19674C32.033 2.25054 32.1205 2.30978 32.2096 2.36685C32.2379 2.37826 32.2938 2.40217 32.3221 2.41413C32.4275 2.47717 32.5303 2.54565 32.6379 2.60598C32.7129 2.64946 32.7862 2.69728 32.8618 2.74076C32.9346 2.78207 33.0063 2.82609 33.0759 2.87283C33.1493 2.92065 33.2216 2.9712 33.296 3.01794C33.3487 3.05544 33.4025 3.09239 33.4574 3.12772C33.5134 3.16467 33.5699 3.20163 33.6281 3.23587C33.6765 3.27717 33.7254 3.31848 33.7754 3.35924C33.8525 3.4087 33.9243 3.46576 33.9966 3.52283C34.0933 3.58913 34.183 3.66522 34.2824 3.72772C34.3873 3.82391 34.4868 3.92826 34.6101 4.00163C34.7123 4.09294 34.8096 4.18967 34.9123 4.28098C35.1623 4.44348 35.3444 4.68804 35.5629 4.88859C35.7634 5.10707 36.008 5.28913 36.171 5.54022C36.2808 5.66359 36.4074 5.77446 36.4966 5.91522C36.5721 6.00326 36.6504 6.08967 36.7129 6.18804C36.7699 6.25489 36.8281 6.32065 36.8862 6.38804C36.9357 6.4663 36.9938 6.53859 37.0536 6.61033C37.1004 6.6875 37.1515 6.7625 37.1977 6.84076C37.2395 6.88913 37.2824 6.93696 37.3254 6.98533C37.371 7.06413 37.4216 7.14076 37.4683 7.21957C37.4868 7.24294 37.5243 7.28967 37.5433 7.31304C37.5879 7.38967 37.6373 7.46413 37.683 7.54131C37.7428 7.64891 37.8112 7.75217 37.8716 7.86033C37.9248 7.95054 37.983 8.03804 38.0368 8.1288C38.0699 8.2038 38.1053 8.27826 38.1406 8.35326C38.1873 8.42663 38.2373 8.49783 38.2852 8.57065C38.3091 8.62826 38.333 8.68587 38.3563 8.74402C38.4346 8.92772 38.6531 8.84294 38.8025 8.91467C38.952 8.92391 39.102 8.92391 39.252 8.93261C39.39 8.99076 39.5422 8.97609 39.6884 8.98968C39.8368 9.04022 39.9971 9.02772 40.1487 9.06576C40.24 9.08424 40.3335 9.09946 40.4243 9.12609C40.5292 9.13913 40.6362 9.14837 40.7406 9.17174C40.814 9.19239 40.889 9.21196 40.9629 9.23533C41.0123 9.24565 41.0629 9.25598 41.1145 9.26685C41.2221 9.2962 41.333 9.31033 41.4422 9.33587C41.4977 9.35544 41.5536 9.37609 41.6102 9.39728C41.6824 9.4125 41.7558 9.42826 41.8286 9.44837C41.8547 9.45707 41.9074 9.475 41.9341 9.48424C42.0248 9.51141 42.1178 9.53261 42.2096 9.56033C42.2352 9.56794 42.2868 9.58261 42.3123 9.59022C42.3672 9.60978 42.4237 9.62881 42.4803 9.64728C42.5536 9.67446 42.6281 9.7 42.702 9.72935C42.7275 9.73315 42.7786 9.74076 42.8042 9.74457C42.8585 9.77717 42.9134 9.80978 42.9688 9.84294C42.9944 9.8462 43.0455 9.85326 43.071 9.85652C43.1417 9.88641 43.214 9.9125 43.2857 9.94185C43.3971 9.98913 43.5112 10.031 43.6237 10.0761C43.6748 10.1043 43.7265 10.1332 43.7786 10.1614C43.8303 10.175 43.8824 10.1897 43.9352 10.2054C44.0297 10.256 44.1259 10.3054 44.2227 10.3533C44.2493 10.3663 44.3031 10.3929 44.3303 10.406C44.4178 10.4511 44.5063 10.4946 44.5944 10.5402C44.6509 10.5674 44.7074 10.5951 44.7656 10.6228C44.8167 10.6495 44.8678 10.6761 44.9199 10.7033C44.9933 10.738 45.0667 10.7739 45.1411 10.8098C45.214 10.8554 45.2852 10.9038 45.3596 10.9489C45.4716 11.0033 45.583 11.0609 45.6857 11.1342C45.758 11.181 45.8297 11.2299 45.9047 11.275C45.9977 11.3255 46.0868 11.3848 46.1775 11.4408C46.2297 11.4783 46.283 11.5158 46.3379 11.5522C46.3939 11.5891 46.4509 11.6255 46.5102 11.6598C46.5574 11.7022 46.6058 11.744 46.6547 11.7864C46.7319 11.8326 46.8074 11.8832 46.8846 11.9304C46.9558 11.9897 47.0281 12.0478 47.1069 12.0978C47.1737 12.1554 47.2395 12.2141 47.3074 12.2717C47.4286 12.35 47.5297 12.4565 47.6536 12.5332C47.7748 12.6418 47.8879 12.7592 48.0096 12.8679C48.1683 12.9603 48.2868 13.1043 48.4172 13.2315C48.6835 13.5049 48.9634 13.7658 49.2221 14.0473C49.3324 14.2424 49.533 14.3647 49.6487 14.556C49.7237 14.6446 49.8025 14.731 49.865 14.8299C49.9221 14.8967 49.9808 14.962 50.039 15.0288C50.0879 15.1071 50.1444 15.1793 50.2015 15.2522C50.252 15.3272 50.3091 15.3978 50.3667 15.4679C50.4015 15.5239 50.439 15.5788 50.4775 15.6337C50.5243 15.7092 50.5748 15.7832 50.6216 15.8603C50.6395 15.8837 50.6759 15.9315 50.6944 15.9549C50.74 16.0315 50.7906 16.1054 50.839 16.181C50.8737 16.2342 50.9096 16.2875 50.9439 16.3429C50.9939 16.4364 51.052 16.5261 51.1063 16.6185C51.1574 16.7103 51.2156 16.7978 51.2716 16.8875C51.2971 16.9397 51.3227 16.9924 51.3498 17.0446C51.3765 17.1016 51.4053 17.1582 51.4341 17.2152C51.4786 17.3049 51.5221 17.3951 51.5656 17.4859C51.6004 17.5391 51.6362 17.5918 51.6748 17.6446C51.6982 17.7196 51.7254 17.794 51.7542 17.8679C51.7694 17.8951 51.7998 17.9495 51.815 17.9766C51.8591 18.0652 51.9036 18.1544 51.9509 18.2418C52.0025 18.3739 52.0515 18.5076 52.1167 18.6342C52.1199 18.6587 52.127 18.7082 52.1303 18.7332C52.1629 18.788 52.1966 18.8435 52.2308 18.8989C52.2324 18.9245 52.2362 18.9755 52.2379 19.0011C52.2683 19.0543 52.2987 19.1087 52.3292 19.163C52.3449 19.2201 52.3629 19.2772 52.3819 19.3342C52.389 19.3603 52.4036 19.4114 52.4112 19.437C52.4303 19.4929 52.4498 19.5489 52.4683 19.6054C52.4949 19.6777 52.5194 19.7511 52.5482 19.8239C52.5542 19.8495 52.5661 19.9 52.5721 19.9255C52.5933 19.981 52.6145 20.0375 52.6352 20.094C52.6591 20.1837 52.6792 20.2755 52.7058 20.3652C52.714 20.3918 52.7313 20.4451 52.7395 20.4717C52.7667 20.5636 52.7884 20.6576 52.8178 20.7495C52.827 20.7995 52.8368 20.8505 52.8477 20.9011C52.8781 21.0125 52.8933 21.1272 52.9237 21.2386C52.9341 21.2891 52.9455 21.3397 52.958 21.3908C52.9824 21.4794 52.9966 21.5707 53.015 21.6614C53.0411 21.7668 53.0509 21.875 53.0656 21.9826C53.0955 22.0886 53.1053 22.1989 53.121 22.3082C53.1754 22.4783 53.1346 22.6641 53.2042 22.831C53.2237 23.0152 53.1775 23.213 53.2667 23.3842V25.6467C53.1949 25.8087 53.215 25.988 53.2025 26.1598C53.1634 26.2669 53.1558 26.381 53.1406 26.4929C53.1102 26.6 53.1015 26.7114 53.0884 26.8217C53.0569 26.9342 53.0417 27.0505 53.0112 27.1636C52.9998 27.2136 52.9895 27.2647 52.9803 27.3158C52.9515 27.4076 52.9303 27.5016 52.9036 27.594C52.8862 27.6663 52.8705 27.7397 52.8509 27.812C52.8335 27.8826 52.8178 27.9543 52.7987 28.025C52.7797 28.0799 52.7602 28.1348 52.7411 28.1902C52.7216 28.2457 52.702 28.3016 52.6814 28.3571C52.6754 28.3826 52.6629 28.4337 52.6564 28.4592C52.6281 28.531 52.6036 28.6049 52.577 28.6783C52.558 28.7342 52.5384 28.7908 52.5183 28.8467C52.5129 28.8723 52.5009 28.9234 52.4955 28.9489C52.4569 29.0429 52.4216 29.1375 52.3819 29.231C52.3542 29.2973 52.3297 29.3652 52.3036 29.4321C52.2553 29.544 52.2134 29.6582 52.1683 29.7712C52.1531 29.7978 52.1232 29.8522 52.1085 29.8788C52.0596 30.0266 51.9966 30.169 51.9243 30.3065C51.9107 30.3332 51.883 30.387 51.8689 30.4136C51.7971 30.5592 51.7248 30.7038 51.652 30.8489C51.615 30.9212 51.5786 30.994 51.5422 31.0663C51.4955 31.1609 51.4487 31.2544 51.4058 31.35C51.3525 31.4402 51.2944 31.5272 51.239 31.6158C51.2134 31.6685 51.1884 31.7217 51.1634 31.7755C51.1069 31.8647 51.0487 31.9527 50.9977 32.0451C50.9531 32.1207 50.9053 32.1935 50.8618 32.2696C50.8091 32.363 50.7498 32.4533 50.6955 32.5457C50.677 32.569 50.6406 32.6163 50.6221 32.6397C50.5873 32.6967 50.5498 32.7522 50.5134 32.8087C50.4656 32.8821 50.4145 32.9544 50.3678 33.0283C50.3292 33.0842 50.2928 33.1413 50.2585 33.1995C50.2161 33.2473 50.1737 33.2957 50.1319 33.3446C50.0857 33.4223 50.0352 33.4973 49.9884 33.575C49.9292 33.6451 49.8716 33.7169 49.8216 33.794C49.7808 33.844 49.7406 33.894 49.7015 33.9451C49.6379 34.0419 49.5596 34.1277 49.4846 34.2158C49.4047 34.3359 49.2998 34.437 49.2221 34.5592C49.127 34.6652 49.0227 34.7641 48.9498 34.8875C48.839 35.012 48.7085 35.1223 48.6243 35.2679C48.4134 35.5043 48.1737 35.713 47.9634 35.9495C47.7824 36.2016 47.5553 36.4294 47.3025 36.6098C47.0748 36.7984 46.902 37.05 46.6498 37.2082C46.5053 37.3342 46.3841 37.4886 46.2178 37.5886C46.133 37.6625 46.0515 37.7397 45.9678 37.8141C45.8667 37.8755 45.7803 37.956 45.6922 38.0337C45.5938 38.0973 45.5042 38.1734 45.4063 38.2375C45.3558 38.2777 45.3064 38.319 45.2574 38.3603C45.1591 38.4239 45.0688 38.5 44.9705 38.5636C44.921 38.6044 44.8721 38.6462 44.8237 38.6886C44.7466 38.7342 44.6721 38.7848 44.5966 38.8326C44.5406 38.8696 44.4857 38.9071 44.4292 38.9424C44.4053 38.9603 44.3569 38.9962 44.3324 39.0141C44.2754 39.0484 44.2194 39.0848 44.165 39.1228C44.0906 39.1696 44.0188 39.2201 43.9455 39.2685C43.8759 39.3147 43.8047 39.3582 43.7324 39.4C43.6406 39.4533 43.5515 39.5109 43.4585 39.5625C43.3835 39.6065 43.3118 39.6549 43.2384 39.7011C43.1487 39.744 43.0591 39.7875 42.9699 39.8315C42.8612 39.9011 42.7531 39.9707 42.6384 40.0299C42.6112 40.0419 42.5563 40.0669 42.5292 40.0794C42.477 40.1054 42.4254 40.1315 42.3737 40.1582C42.2998 40.1946 42.2265 40.2326 42.1547 40.2723C42.0656 40.3076 41.9754 40.3402 41.8857 40.3728C41.8058 40.4141 41.727 40.456 41.6493 40.5H22.7938C22.6167 40.4207 22.4205 40.4489 22.233 40.4451C19.2982 40.4467 16.3634 40.4451 13.4292 40.4457C13.2275 40.4457 13.0265 40.4489 12.8254 40.438C12.6406 40.3538 12.4286 40.4261 12.2422 40.3484C12.0987 40.3364 11.9525 40.3424 11.814 40.3C11.7047 40.2842 11.5949 40.275 11.489 40.2451C11.3813 40.2299 11.2732 40.2207 11.1683 40.1935C11.1172 40.1799 11.0667 40.1674 11.0161 40.156C10.9063 40.1272 10.7938 40.112 10.6835 40.0853C10.6107 40.0669 10.5373 40.0505 10.4656 40.0299C10.3928 40.0114 10.3199 39.9951 10.2482 39.9745C10.2221 39.9658 10.1699 39.9489 10.1433 39.9402C10.052 39.912 9.95852 39.8908 9.86721 39.8636C9.84167 39.856 9.79004 39.8419 9.7645 39.8342C9.70906 39.813 9.65308 39.7929 9.5971 39.7745C9.54276 39.7554 9.48841 39.7375 9.43352 39.7207C9.37917 39.7022 9.32482 39.6848 9.26993 39.6685C9.19765 39.6408 9.12428 39.6158 9.052 39.5886C9.02645 39.5821 8.97537 39.569 8.95037 39.5625C8.89384 39.5424 8.83678 39.5239 8.77971 39.5065C8.72754 39.4804 8.67536 39.4549 8.62319 39.4299C8.54873 39.4049 8.47536 39.3766 8.40254 39.3478C8.27971 39.2821 8.14874 39.2353 8.01993 39.1842C7.9471 39.1451 7.87373 39.1076 7.80036 39.0717C7.74873 39.0446 7.6971 39.0185 7.64602 38.9924C7.58841 38.9647 7.53134 38.9364 7.47428 38.9098C7.42265 38.8826 7.37102 38.8554 7.31993 38.8294C7.26232 38.8011 7.2058 38.7734 7.14873 38.7462C7.06015 38.7005 6.97102 38.6571 6.88189 38.6136C6.80797 38.5679 6.73569 38.519 6.66123 38.475C6.552 38.4141 6.44819 38.3457 6.33895 38.2859C6.28352 38.2527 6.22863 38.2169 6.17482 38.1821C6.12047 38.1462 6.06667 38.1087 6.01341 38.0723C5.93895 38.025 5.86667 37.9745 5.79221 37.9277C5.73732 37.8897 5.68243 37.8527 5.62591 37.8174C5.5558 37.7598 5.48515 37.7027 5.4096 37.6527C5.33841 37.5962 5.26776 37.5402 5.19276 37.4897C5.11993 37.4321 5.0471 37.375 4.9683 37.3266C4.88406 37.2511 4.80199 37.1734 4.71776 37.0989C4.55145 36.9995 4.43026 36.8451 4.28569 36.719C4.09384 36.6054 3.95689 36.4255 3.7971 36.275C3.64602 36.1147 3.46558 35.9772 3.35199 35.7853C3.22591 35.6413 3.07319 35.5196 2.9721 35.3554C2.91504 35.288 2.85689 35.2223 2.80036 35.1554C2.73786 35.0549 2.65689 34.9685 2.57754 34.8826C2.5308 34.8033 2.48026 34.7272 2.43406 34.6489C2.39221 34.6 2.34982 34.5522 2.30743 34.5038C2.27265 34.4457 2.23569 34.3886 2.19765 34.3332C2.14982 34.2571 2.09928 34.1832 2.05308 34.1071C2.0346 34.0837 1.99819 34.0364 1.97971 34.013C1.92482 33.9212 1.86558 33.8321 1.81069 33.7402C1.79928 33.7125 1.77591 33.656 1.76395 33.6277C1.70689 33.5391 1.64819 33.4516 1.59439 33.3614C1.56069 33.2859 1.52591 33.2114 1.49058 33.137C1.44439 33.063 1.39493 32.9919 1.34928 32.9179C1.3221 32.8647 1.29439 32.8114 1.26667 32.7587C1.22156 32.6478 1.1808 32.5359 1.13678 32.425C1.10743 32.3734 1.07808 32.3217 1.04873 32.2707C1.00417 32.1582 0.962864 32.0446 0.915581 31.9332C0.879168 31.8413 0.844385 31.7495 0.805255 31.6598C0.777538 31.5891 0.751994 31.5179 0.72319 31.4484C0.717755 31.4228 0.705799 31.3717 0.69982 31.3462C0.678625 31.2902 0.659059 31.2342 0.640038 31.1783C0.615038 31.1065 0.592211 31.0342 0.567211 30.963C0.548733 30.9065 0.529168 30.8511 0.509059 30.7957C0.500907 30.7701 0.48569 30.719 0.478081 30.6935C0.456342 30.6207 0.438951 30.5473 0.420472 30.4745C0.400907 30.4022 0.385146 30.3288 0.368842 30.2565C0.341668 30.1641 0.320472 30.0701 0.292211 29.9788C0.281885 29.9277 0.271559 29.8772 0.26069 29.8272C0.235146 29.738 0.220472 29.6462 0.203624 29.5554C0.171016 29.4228 0.166668 29.2848 0.128081 29.1538C0.115037 29.0239 0.118298 28.8908 0.0693853 28.7679C0.0525375 28.6011 0.0873201 28.4223 0.00579834 28.2679V26.0598C0.076994 25.8973 0.0568853 25.7179 0.0704723 25.5462C0.124277 25.3962 0.107972 25.2332 0.151451 25.081C0.166668 24.9712 0.175907 24.8603 0.208516 24.7544C0.217755 24.688 0.225907 24.6217 0.235146 24.5565C0.266124 24.462 0.288407 24.3652 0.318842 24.2712C0.327538 24.2207 0.336777 24.1701 0.345472 24.1201C0.37482 24.0277 0.396016 23.9332 0.42319 23.8402C0.439494 23.7674 0.455798 23.6951 0.475907 23.6239C0.485146 23.5973 0.503081 23.5435 0.511777 23.5169C0.537864 23.4315 0.557429 23.3451 0.582429 23.2603C0.617211 23.1832 0.650364 23.1054 0.679168 23.0266C0.696559 22.9723 0.712864 22.9179 0.729168 22.863C0.754168 22.7919 0.776994 22.7196 0.801451 22.6484C0.828625 22.5712 0.859059 22.4957 0.890581 22.4207C0.916668 22.3538 0.940581 22.2859 0.966125 22.219C0.994929 22.1603 1.02428 22.1022 1.05308 22.044C1.07971 21.9924 1.10689 21.9408 1.13406 21.8897C1.14819 21.8375 1.16286 21.7853 1.17862 21.7342C1.22917 21.6386 1.27808 21.5429 1.32591 21.4467C1.35145 21.394 1.37699 21.3419 1.40254 21.2897C1.45797 21.2005 1.51612 21.1141 1.56884 21.0239C1.60308 20.9489 1.63786 20.875 1.67319 20.8016C1.73026 20.7109 1.78895 20.6223 1.84004 20.5288C1.87265 20.4728 1.90797 20.419 1.94384 20.3658C1.99112 20.2913 2.04167 20.219 2.08895 20.1446C2.12645 20.0908 2.16286 20.037 2.19819 19.9821C2.23515 19.9283 2.2721 19.8745 2.30743 19.8196C2.34439 19.763 2.38134 19.7071 2.41558 19.6489C2.45743 19.6 2.49873 19.5511 2.54004 19.5027C2.60417 19.4027 2.6808 19.3125 2.74384 19.2125C2.81939 19.1283 2.8971 19.0467 2.97156 18.962C3.07156 18.7897 3.24602 18.6772 3.34439 18.5038C3.65852 18.1717 3.98243 17.8484 4.31395 17.5337C4.51015 17.4234 4.6308 17.2207 4.82482 17.1076C4.89167 17.05 4.95743 16.9918 5.02428 16.9342C5.10199 16.8848 5.17482 16.8283 5.2471 16.7717C5.32265 16.7201 5.3933 16.6625 5.46286 16.6043C5.54058 16.5571 5.61558 16.5065 5.69384 16.4609C5.74221 16.4185 5.79058 16.3761 5.83895 16.3342C5.8971 16.2995 5.95363 16.262 6.0096 16.2245C6.08352 16.1777 6.1558 16.1283 6.2308 16.0837C6.32373 16.0326 6.41286 15.9745 6.50471 15.9212C6.59656 15.8696 6.6846 15.8109 6.77373 15.7549C6.82754 15.7299 6.88134 15.7043 6.93515 15.6793C7.00852 15.6332 7.07971 15.5837 7.15308 15.538C7.22645 15.5022 7.29982 15.4663 7.37373 15.431C7.44602 15.394 7.51884 15.3576 7.59221 15.3228C7.64384 15.2946 7.69547 15.2668 7.74656 15.2386C7.85689 15.1946 7.96884 15.1538 8.07917 15.1092C8.15363 15.0679 8.22917 15.0277 8.30363 14.9875C8.35526 14.9717 8.40743 14.9571 8.4596 14.9429C8.51123 14.9168 8.56287 14.8908 8.61504 14.8652C8.7096 14.8353 8.80145 14.7984 8.89221 14.7576C8.94765 14.738 9.00363 14.7179 9.05852 14.6973C9.08406 14.6913 9.1346 14.6788 9.16015 14.6728C9.23243 14.6446 9.30634 14.6201 9.37971 14.5929C9.43623 14.5745 9.49221 14.5549 9.54873 14.5342C9.57373 14.5288 9.62428 14.5168 9.64982 14.5114C9.72536 14.4799 9.802 14.4522 9.877 14.4201C9.90797 14.4179 9.96939 14.413 9.99982 14.4103C10.0058 14.3533 10.0118 14.2962 10.0188 14.2391C10.0819 14.0663 10.0536 13.8793 10.0688 13.6995C10.1254 13.5495 10.1074 13.3853 10.1515 13.2326C10.1667 13.1223 10.1754 13.0103 10.2101 12.9043C10.2188 12.8223 10.2265 12.7402 10.2357 12.6587C10.2694 12.5457 10.2846 12.4288 10.315 12.3152C10.3265 12.2641 10.3379 12.213 10.3493 12.1625C10.3781 12.0543 10.3922 11.9435 10.4167 11.8348C10.4384 11.7772 10.4612 11.7196 10.4851 11.663C10.4922 11.6125 10.4993 11.562 10.5069 11.512C10.5373 11.419 10.5596 11.3239 10.589 11.231C10.5955 11.2049 10.6085 11.1533 10.615 11.1272C10.6449 11.0533 10.6716 10.9788 10.7015 10.9049C10.7069 10.8793 10.7178 10.8272 10.7232 10.8011C10.7531 10.7272 10.7803 10.6522 10.8101 10.5788C10.8161 10.5533 10.8275 10.5027 10.8335 10.4777C10.8542 10.4217 10.8737 10.3658 10.8933 10.3092C10.9341 10.2201 10.9726 10.1299 11.0063 10.0375C11.0216 9.98261 11.0368 9.92717 11.0509 9.87174C11.0906 9.79674 11.1303 9.72228 11.1699 9.64728C11.1857 9.59565 11.2004 9.54348 11.215 9.49185C11.2292 9.46467 11.2569 9.41033 11.2705 9.38315C11.3259 9.27337 11.3808 9.16304 11.4362 9.05326C11.4748 8.9462 11.515 8.83913 11.5618 8.73478C11.6101 8.66141 11.6607 8.58967 11.7091 8.51576C11.7216 8.48804 11.7466 8.43207 11.7591 8.40435C11.8047 8.31576 11.8482 8.22663 11.8922 8.1375C11.9373 8.06304 11.9862 7.99076 12.0308 7.91576C12.0911 7.80707 12.1596 7.70326 12.2199 7.59457C12.2645 7.51957 12.314 7.44728 12.3607 7.37337C12.3982 7.31794 12.4351 7.26196 12.4705 7.20489C12.4884 7.18152 12.5254 7.1337 12.5433 7.11033C12.5895 7.03152 12.64 6.95544 12.6862 6.87609C12.7286 6.82826 12.7721 6.78044 12.815 6.73207C12.8607 6.65217 12.9118 6.57554 12.958 6.49565C13.0178 6.42989 13.0781 6.36467 13.1379 6.29837C13.2015 6.19728 13.2786 6.10544 13.3417 6.00435C13.4547 5.87989 13.5857 5.76957 13.6705 5.62283C13.8286 5.44402 14.008 5.28478 14.1672 5.10598C14.2444 4.96467 14.3618 4.84728 14.5031 4.77011C14.7199 4.57663 14.9118 4.35707 15.1292 4.16413C15.2525 4.09185 15.3509 3.9875 15.4569 3.89294C15.5569 3.83098 15.6438 3.75054 15.7319 3.67337C15.8297 3.6087 15.9194 3.53315 16.0178 3.46902C16.0678 3.4288 16.1172 3.3875 16.1678 3.34728C16.2444 3.29728 16.3161 3.23967 16.3873 3.18152C16.4629 3.13424 16.5357 3.0837 16.6112 3.03696C16.664 2.99946 16.7172 2.96196 16.7716 2.92609C16.8411 2.88043 16.9123 2.83696 16.9851 2.79565C17.077 2.74239 17.1656 2.68478 17.2585 2.63315C17.333 2.58913 17.4058 2.5413 17.4803 2.49674C17.6129 2.43424 17.7384 2.35815 17.8612 2.27717C17.9346 2.2413 18.008 2.20489 18.0819 2.16902C18.1085 2.15598 18.1618 2.1288 18.1884 2.11522C18.2971 2.06033 18.4058 2.00598 18.5161 1.95326C18.5672 1.92554 18.6183 1.89783 18.6699 1.87011C18.7803 1.82554 18.8917 1.78424 19.0015 1.73696C19.1265 1.67283 19.2585 1.62554 19.3884 1.57174C19.4547 1.54457 19.5226 1.52065 19.5895 1.49348C19.664 1.46141 19.7395 1.43098 19.8167 1.40326C19.8705 1.38587 19.9254 1.36902 19.9803 1.35272C20.0509 1.32717 20.1226 1.30435 20.1938 1.2788C20.2504 1.25978 20.3069 1.24022 20.3634 1.21902C20.389 1.21304 20.4395 1.20163 20.465 1.19565C20.5384 1.16576 20.6134 1.13913 20.6873 1.10924C20.7129 1.10272 20.7645 1.08967 20.79 1.08315C20.883 1.0538 20.9781 1.03207 21.071 1.00272C21.121 0.993478 21.171 0.984239 21.2221 0.974457C21.2949 0.952174 21.3694 0.933696 21.4438 0.915217C21.5156 0.894565 21.589 0.877717 21.6623 0.860326C21.7721 0.833152 21.8851 0.817935 21.9955 0.790217C22.0879 0.77337 22.1813 0.759239 22.2721 0.733696C22.3835 0.719022 22.4966 0.711413 22.6036 0.675C22.7009 0.666304 22.7987 0.659783 22.896 0.651087C23.0656 0.584783 23.2563 0.635326 23.4237 0.561957C23.6607 0.531522 23.9161 0.604348 24.14 0.5ZM24.3938 3.87337C24.1726 4.0087 23.883 3.83967 23.6612 3.97391C23.5428 3.97772 23.4248 3.97826 23.3069 3.98261C23.1873 4.07065 23.027 3.99783 22.9036 4.07609C22.8118 4.0875 22.7156 4.08261 22.6324 4.12989C22.5417 4.1413 22.4487 4.1413 22.3645 4.1788C22.2906 4.19457 22.2167 4.20815 22.1466 4.23533C22.1221 4.24239 22.0732 4.25707 22.0482 4.26467C21.9558 4.29674 21.8591 4.31196 21.7672 4.34511C21.7422 4.35109 21.6911 4.36359 21.6661 4.36957C21.5922 4.40109 21.5161 4.425 21.4433 4.45652C21.4178 4.4625 21.3661 4.47337 21.3406 4.4788C21.2683 4.5087 21.1944 4.53152 21.1221 4.55924C21.0683 4.575 21.015 4.59348 20.9634 4.61413C20.8379 4.67174 20.7053 4.71196 20.5824 4.77446C20.5091 4.81196 20.4368 4.85 20.365 4.88967C20.2531 4.9375 20.1379 4.97663 20.0248 5.0212C19.921 5.08424 19.8221 5.15489 19.7156 5.2125C19.5938 5.26304 19.4868 5.33967 19.3743 5.40707C18.8569 5.73044 18.3379 6.06576 17.8944 6.4875C17.5607 6.72663 17.3042 7.05652 17.0025 7.3337C16.814 7.49294 16.6982 7.71522 16.5145 7.87881C16.1313 8.35598 15.7716 8.85326 15.4563 9.37935C15.389 9.49185 15.3123 9.59891 15.2618 9.72065C15.2123 9.81359 15.1509 9.89891 15.0955 9.98804C15.083 10.0158 15.0574 10.0712 15.0449 10.0984C14.9884 10.2065 14.9341 10.3152 14.8813 10.4255C14.8362 10.5114 14.7933 10.5989 14.7466 10.6842C14.6928 10.8114 14.6536 10.9451 14.5851 11.0658C14.5449 11.1533 14.5123 11.2446 14.4775 11.3342C14.4275 11.4467 14.3884 11.5641 14.3373 11.6766C14.3096 11.7446 14.2879 11.8147 14.2612 11.8837C14.2455 11.9386 14.2281 11.9935 14.2085 12.0478C14.1917 12.1027 14.1732 12.1571 14.1536 12.2114C14.1368 12.2658 14.1194 12.3201 14.1004 12.3745C14.0824 12.431 14.0623 12.487 14.04 12.5418C14.033 12.5668 14.0199 12.6174 14.0134 12.6424C13.9808 12.7337 13.9656 12.8304 13.9335 12.9228C13.9259 12.9478 13.9118 12.9978 13.9042 13.0228C13.8721 13.1158 13.8569 13.2141 13.8216 13.3065C13.814 13.3554 13.8063 13.4049 13.7987 13.4543C13.7623 13.5484 13.7493 13.65 13.7101 13.744C13.7042 13.8092 13.6993 13.8745 13.6933 13.9402C13.64 14.0217 13.6482 14.1207 13.6368 14.2136C13.5765 14.3114 13.596 14.4283 13.5851 14.5375C13.4987 14.6592 13.5797 14.8228 13.4884 14.9429C13.4705 15.087 13.5232 15.25 13.433 15.3777C13.4085 15.5565 13.4803 15.7592 13.3786 15.9207C13.371 16.3408 13.3775 16.7609 13.3754 17.181C13.2699 17.1897 13.1531 17.163 13.0634 17.2353C12.927 17.2391 12.7906 17.2386 12.6547 17.2429C12.5438 17.325 12.4009 17.2837 12.2737 17.2984C12.1781 17.3685 12.0569 17.3424 11.9471 17.3554C11.8406 17.4136 11.7145 17.3951 11.6036 17.4391C11.5308 17.4549 11.4574 17.469 11.3868 17.494C11.3134 17.5098 11.239 17.5228 11.1688 17.5505C11.1438 17.5576 11.0949 17.5728 11.0699 17.5799C10.9803 17.612 10.8857 17.6261 10.7949 17.6544C10.74 17.6717 10.6857 17.6908 10.6313 17.7109C10.5765 17.7272 10.5226 17.7446 10.4688 17.7641C10.4156 17.781 10.3634 17.7995 10.3123 17.8207C10.2384 17.8554 10.1629 17.887 10.0841 17.9098C9.99167 17.9418 9.89928 17.9734 9.80906 18.0109C9.75906 18.0397 9.70906 18.0685 9.65906 18.0978C9.56993 18.1348 9.47863 18.1658 9.38787 18.1989C9.31504 18.2353 9.24221 18.2717 9.16993 18.3087C9.03569 18.3685 8.91721 18.4554 8.79221 18.531C8.73134 18.5565 8.67156 18.5842 8.61123 18.6103C8.51939 18.663 8.43352 18.7245 8.34167 18.7766C7.82537 19.0804 7.36232 19.4625 6.89493 19.8342C6.56667 20.1587 6.2433 20.488 5.91504 20.812C5.51776 21.2707 5.14276 21.7527 4.82645 22.2728C4.77808 22.3663 4.71613 22.4527 4.66395 22.5446C4.60743 22.6516 4.53569 22.75 4.47645 22.8554C4.43243 22.9522 4.38406 23.0467 4.33786 23.1429C4.30036 23.2147 4.26341 23.2875 4.22645 23.3603C4.19113 23.4685 4.15254 23.5755 4.09602 23.6745C4.04602 23.7853 4.00852 23.9016 3.95689 24.012C3.93623 24.0636 3.91721 24.1163 3.90036 24.1696C3.88134 24.2228 3.86341 24.2772 3.84656 24.3321C3.82754 24.3859 3.8096 24.4402 3.7933 24.4957C3.77265 24.5489 3.75308 24.6033 3.73515 24.6582C3.71286 24.7272 3.69982 24.7989 3.6846 24.8701C3.65906 24.9408 3.64602 25.0147 3.6308 25.0886C3.59982 25.1826 3.58569 25.2821 3.5471 25.3745C3.54113 25.4391 3.53623 25.5049 3.53026 25.5707C3.44602 25.6924 3.52428 25.8554 3.43406 25.975C3.42971 26.0929 3.42917 26.2114 3.42536 26.3299C3.41395 26.3533 3.39058 26.4 3.37917 26.4239C3.37156 27.0082 3.37373 27.5929 3.37863 28.1772C3.47536 28.3207 3.41178 28.5038 3.43352 28.6658C3.52536 28.7848 3.44493 28.9489 3.5308 29.0712C3.53623 29.1353 3.54113 29.2005 3.54656 29.2658C3.60743 29.3728 3.57917 29.5033 3.63569 29.6125C3.6433 29.6603 3.65091 29.7092 3.65852 29.7582C3.6933 29.8505 3.70906 29.9489 3.74167 30.0424C3.74819 30.0674 3.76178 30.1179 3.7683 30.1429C3.79058 30.1978 3.81069 30.2544 3.82808 30.312C3.85417 30.3821 3.87482 30.4538 3.90091 30.525C3.91776 30.5783 3.93623 30.6315 3.95689 30.6837C4.01504 30.8098 4.05363 30.944 4.1221 31.0658C4.17156 31.1761 4.21015 31.2908 4.25743 31.4027C4.28406 31.4522 4.31069 31.5027 4.33732 31.5533C4.38949 31.6734 4.46558 31.7804 4.53243 31.8924C4.58134 31.9859 4.6433 32.0723 4.69547 32.1641C4.9846 32.6245 5.30526 33.0717 5.69765 33.4505C5.802 33.5967 5.91069 33.7451 6.06123 33.8478C6.2721 33.9755 6.40308 34.1978 6.61286 34.3272C6.94113 34.6005 7.29113 34.8473 7.64765 35.0815C7.74221 35.1299 7.82808 35.1913 7.92047 35.244C8.01395 35.2929 8.09982 35.3538 8.19004 35.4098C8.24058 35.4332 8.29167 35.4576 8.34276 35.4821C8.46123 35.5364 8.56884 35.6109 8.67917 35.6804C8.73026 35.7054 8.7808 35.7321 8.83189 35.7592C8.95797 35.812 9.0895 35.8533 9.21178 35.9158C9.2846 35.9533 9.35743 35.9908 9.42917 36.031C9.51776 36.069 9.60852 36.1011 9.69874 36.1364C9.78732 36.1766 9.87917 36.2098 9.96993 36.2451C10.0438 36.2783 10.1194 36.3103 10.1971 36.3348C10.2509 36.3527 10.3053 36.3707 10.3601 36.3875C10.414 36.406 10.4688 36.4239 10.5243 36.4402C10.5966 36.4679 10.671 36.4908 10.7428 36.5212C10.7683 36.5266 10.8199 36.538 10.8455 36.5435C10.9188 36.5745 10.9944 36.5984 11.0683 36.6304C11.0933 36.6364 11.1444 36.6489 11.1694 36.6554C11.2612 36.6875 11.3574 36.7033 11.4498 36.7337C11.5248 36.7489 11.602 36.7603 11.6726 36.7929C11.721 36.8 11.7694 36.8076 11.8183 36.8158C11.9101 36.8505 12.0085 36.8658 12.102 36.8967C12.1775 36.912 12.2542 36.9239 12.3248 36.956C12.4178 36.9679 12.5167 36.9609 12.5993 37.0141C12.7085 37.0261 12.8286 37.0016 12.9248 37.069C13.0351 37.081 13.1574 37.0533 13.2525 37.1266C22.6602 37.1364 32.0672 37.1266 41.4748 37.1315C41.614 37.1592 41.7031 37.0326 41.8194 36.9832C41.8982 36.9397 41.971 36.8859 42.0504 36.8429C42.6955 36.4538 43.2884 35.981 43.865 35.5C44.096 35.3353 44.2564 35.0897 44.5009 34.9418C44.7966 34.6391 45.1243 34.363 45.3727 34.0196C45.5112 33.8679 45.6792 33.7424 45.7884 33.5663C46.4504 32.8223 47.04 32.013 47.5765 31.1734C47.6243 31.0788 47.6862 30.9924 47.739 30.9011C47.7879 30.8071 47.8493 30.7207 47.902 30.6294C47.958 30.5217 48.0297 30.4239 48.09 30.3185C48.1161 30.2582 48.1449 30.1995 48.1732 30.1402C48.1982 30.0897 48.2232 30.0386 48.2487 29.988C48.2938 29.9103 48.3477 29.8386 48.3944 29.762C48.4074 29.7342 48.4324 29.6794 48.4455 29.6516C48.5341 29.4962 48.5949 29.3283 48.6591 29.162C48.7063 29.0761 48.7498 28.9886 48.7977 28.9033C48.8574 28.7511 48.9102 28.5951 48.9933 28.4538C49.0112 28.4011 49.0281 28.3489 49.0438 28.2967C49.0699 28.2277 49.0922 28.1576 49.1205 28.0897C49.1612 27.9989 49.1949 27.9054 49.2292 27.8125C49.2433 27.7565 49.2607 27.7016 49.2808 27.6478C49.2977 27.5902 49.3178 27.5342 49.3422 27.4794C49.3482 27.4544 49.3596 27.4044 49.3656 27.3794C49.3873 27.3239 49.4074 27.2679 49.4265 27.2114C49.4449 27.1565 49.4634 27.1022 49.4819 27.0478C49.5102 26.9571 49.5227 26.8625 49.5547 26.7734C49.5699 26.6978 49.5808 26.6207 49.6145 26.5505C49.621 26.5022 49.6281 26.4538 49.6357 26.4065C49.683 26.3234 49.6786 26.2261 49.6917 26.1348C49.7466 26.025 49.7188 25.894 49.7808 25.787C49.7933 25.6766 49.7661 25.5549 49.8384 25.4598C49.8417 25.3413 49.8428 25.2234 49.8471 25.1054C49.8585 25.0815 49.8819 25.0337 49.8933 25.0098C49.9036 24.5397 49.8922 24.0696 49.8982 23.5995C49.8922 23.4935 49.9189 23.3766 49.8477 23.2859C49.8335 23.1592 49.8721 23.0185 49.7944 22.9065C49.789 22.8239 49.7862 22.7413 49.7819 22.6592C49.7172 22.5527 49.7477 22.4201 49.6911 22.3114C49.6824 22.2625 49.6754 22.2136 49.6688 22.1658C49.6319 22.0717 49.6178 21.9717 49.5824 21.8783C49.5737 21.8288 49.5661 21.7794 49.5596 21.7304C49.5232 21.6408 49.5102 21.544 49.4819 21.4522C49.4634 21.3973 49.4449 21.3429 49.4254 21.2891C49.408 21.2337 49.3906 21.1793 49.3721 21.1261C49.3542 21.0728 49.3352 21.0201 49.315 20.9685C49.2721 20.8793 49.24 20.7864 49.2085 20.6935C49.1857 20.6152 49.1547 20.5408 49.1221 20.4674C49.0531 20.3467 49.0134 20.2136 48.9607 20.0864C48.9134 20.0011 48.8705 19.9136 48.8259 19.8277C48.7971 19.7685 48.7672 19.7098 48.74 19.6511C48.702 19.5788 48.6656 19.5065 48.6314 19.4337C48.6047 19.3832 48.5786 19.3332 48.5531 19.2832C48.5406 19.256 48.5156 19.2005 48.5031 19.1728C48.4563 19.0957 48.402 19.0234 48.3591 18.9446C48.3025 18.837 48.2303 18.7391 48.1743 18.6315C47.7754 17.9951 47.3237 17.3924 46.821 16.8359C46.5835 16.5174 46.2672 16.2663 45.9977 15.975C45.8292 15.7772 45.5944 15.6565 45.4265 15.4587C44.8922 15.006 44.3145 14.6071 43.7227 14.2337C43.6281 14.1848 43.5417 14.1234 43.4504 14.0712C43.3558 14.0223 43.2699 13.9609 43.1803 13.9049C43.1531 13.8924 43.0977 13.8668 43.0699 13.8543C42.9841 13.8092 42.8971 13.7668 42.8118 13.7223C42.752 13.694 42.6933 13.6641 42.6352 13.6364C42.5487 13.5918 42.4618 13.5495 42.3759 13.506C42.3487 13.4913 42.2944 13.462 42.2672 13.4473C42.1553 13.4 42.0406 13.3614 41.9303 13.312C41.8085 13.2429 41.6737 13.2043 41.5471 13.1473C41.4781 13.119 41.408 13.0978 41.34 13.0717C41.2862 13.0549 41.2335 13.037 41.1819 13.0168C41.108 12.9821 41.033 12.95 40.9558 12.9261C40.9009 12.9071 40.8466 12.8891 40.7928 12.8723C40.7015 12.8435 40.6063 12.8293 40.5178 12.7967C40.4922 12.7902 40.4422 12.7777 40.4172 12.7712C40.3618 12.7467 40.3063 12.7255 40.2498 12.7071C40.1797 12.6853 40.1074 12.6723 40.0368 12.6582C39.9428 12.6272 39.8449 12.6114 39.7531 12.5772C39.6602 12.5647 39.5623 12.5701 39.4797 12.5207C39.4314 12.5141 39.383 12.5076 39.3362 12.5011C39.2384 12.4397 39.1205 12.4603 39.0123 12.4489C38.89 12.3636 38.7275 12.4418 38.6074 12.3533C38.5063 12.3484 38.4063 12.3467 38.3063 12.3429C38.1368 12.2223 37.9053 12.3658 37.7373 12.2424C37.4563 12.2337 37.1748 12.2446 36.8938 12.2353C36.7721 12.1473 36.615 12.1962 36.4765 12.1837C36.3531 12.1935 36.2134 12.1527 36.1069 12.2353C36.015 12.238 35.9232 12.2391 35.8313 12.2408C35.7868 12.1255 35.7667 12.0043 35.7313 11.887C35.7145 11.8293 35.6933 11.7734 35.6688 11.7185C35.6634 11.6935 35.652 11.6435 35.646 11.6185C35.6232 11.563 35.6025 11.5065 35.5857 11.4489C35.5591 11.3783 35.5384 11.3065 35.5129 11.2359C35.496 11.1821 35.477 11.1293 35.4569 11.0772C35.4145 10.9891 35.3824 10.8973 35.3471 10.8071C35.2911 10.6804 35.2498 10.5478 35.1873 10.4245C35.1498 10.3511 35.1118 10.2788 35.0727 10.2071C35.0194 10.0804 34.9775 9.94946 34.9167 9.82609C34.8596 9.70761 34.7862 9.59891 34.714 9.48968C34.702 9.46196 34.6786 9.40544 34.6672 9.37717C34.6058 9.27283 34.5341 9.17391 34.4786 9.06631C34.4025 8.93044 34.3047 8.8087 34.2292 8.67337C33.9123 8.18587 33.5498 7.72337 33.1482 7.30218C32.9629 7.04076 32.7265 6.81359 32.4672 6.62663C32.0824 6.24131 31.633 5.92391 31.1808 5.62446C31.0313 5.54022 30.8966 5.4337 30.7482 5.34946C30.7199 5.3375 30.6634 5.31467 30.6352 5.30272C30.5585 5.25544 30.4862 5.20163 30.4091 5.15598C30.358 5.13098 30.3069 5.10652 30.2563 5.08152C30.1835 5.0462 30.1112 5.00978 30.039 4.97391C30.0118 4.9587 29.9574 4.92935 29.9308 4.91467C29.8172 4.86739 29.7015 4.82826 29.5906 4.77772C29.5232 4.75 29.4547 4.72772 29.3884 4.70054C29.2998 4.65924 29.208 4.62663 29.1172 4.5913C29.0248 4.54946 28.9286 4.5163 28.8352 4.47826C28.8096 4.47228 28.7585 4.45978 28.7335 4.4538C28.6411 4.42065 28.5444 4.40544 28.4525 4.37337C28.4275 4.36576 28.3775 4.35163 28.3525 4.34402C28.2602 4.31196 28.1634 4.2962 28.0716 4.26467C28.0471 4.25707 27.9982 4.24185 27.9737 4.23478C27.864 4.18859 27.7395 4.2038 27.6319 4.15326C27.539 4.14022 27.44 4.14783 27.3585 4.09457C27.2933 4.08913 27.2281 4.08478 27.1634 4.07989C27.0259 3.98044 26.8395 4.08696 26.7042 3.98207C26.5596 3.96522 26.3971 4.01685 26.2694 3.92772C26.0607 3.92065 25.8525 3.92717 25.6438 3.92011C25.6199 3.9087 25.571 3.88478 25.5471 3.87283C25.1629 3.86522 24.7781 3.86848 24.3938 3.87337Z" fill="#47A118"/>
<path d="M26.3319 10.5386C26.4993 10.4641 26.69 10.5098 26.8678 10.5049C27.008 10.5777 27.1803 10.5413 27.3096 10.6473C27.3688 10.675 27.4281 10.7038 27.4884 10.7304C27.7987 10.8875 28.0004 11.1701 28.1819 11.4565C28.1976 11.5093 28.2134 11.562 28.2281 11.6152C28.2493 11.6685 28.2688 11.7223 28.2873 11.7766C28.3118 11.837 28.3232 11.9 28.3216 11.9658C28.3205 17.3728 28.321 22.7794 28.321 28.1864C29.7514 26.7647 31.1737 25.3348 32.6009 23.9103C32.7944 23.7228 32.9688 23.5136 33.1966 23.3658C33.8259 22.7451 34.4471 22.1158 35.0737 21.4919C35.3346 21.2408 35.565 20.9489 35.8944 20.7821C35.9688 20.7522 36.0438 20.7218 36.1205 20.6957C36.2634 20.6261 36.4422 20.7136 36.5716 20.6071C36.6449 20.6098 36.7221 20.6087 36.7846 20.6576C36.9069 20.6658 37.0351 20.6489 37.152 20.6957C37.2281 20.7218 37.3025 20.7522 37.3781 20.7821C37.7525 20.9946 38.0922 21.3114 38.2313 21.7288C38.2553 21.7957 38.2672 21.8652 38.283 21.9348C38.3406 22.0462 38.3156 22.1756 38.3226 22.2957C38.314 22.4321 38.3455 22.5788 38.283 22.7065C38.2672 22.775 38.2553 22.8457 38.2308 22.9125C38.1601 23.0837 38.0873 23.2598 37.9547 23.394C34.7205 26.6277 31.4868 29.8614 28.2531 33.0957C28.0716 33.2957 27.8509 33.4516 27.6406 33.6185C27.6123 33.631 27.5558 33.656 27.5275 33.6685C27.4417 33.7131 27.3531 33.7527 27.2618 33.7842C27.0585 33.8462 26.8411 33.8033 26.6324 33.8152C26.4438 33.8049 26.2476 33.844 26.0656 33.7837C25.9895 33.7565 25.9156 33.725 25.8422 33.6929C25.8139 33.6794 25.7585 33.6522 25.7308 33.6391C25.471 33.4701 25.2324 33.2663 25.0194 33.0408C21.8036 29.825 18.5884 26.6093 15.3721 23.394C15.3275 23.3484 15.2895 23.2968 15.2558 23.2435C15.2444 23.2147 15.2216 23.1571 15.2101 23.1288C15.1819 23.0788 15.1536 23.0288 15.1248 22.9794C15.0846 22.8924 15.058 22.8006 15.0438 22.706C14.9808 22.5783 15.0123 22.4315 15.0042 22.2951C15.0107 22.175 14.9851 22.0457 15.0444 21.9353C15.0585 21.8663 15.0705 21.7978 15.0906 21.731C15.1308 21.6582 15.1694 21.5853 15.2096 21.5125C15.221 21.4837 15.2444 21.4266 15.2558 21.3984C15.4346 21.1424 15.6764 20.9337 15.9487 20.7821C16.0237 20.7522 16.0987 20.7212 16.1748 20.6946C16.3014 20.6413 16.4525 20.6951 16.5688 20.6114C16.6678 20.6087 16.7672 20.6087 16.8667 20.6125C16.9683 20.6766 17.0938 20.6582 17.2053 20.694C17.2813 20.7207 17.3558 20.7522 17.4297 20.7853C17.4808 20.8109 17.5319 20.8364 17.5841 20.8609C17.7976 21.0234 18.0161 21.1837 18.1987 21.3826C20.4498 23.6326 22.6971 25.8859 24.9514 28.1321C24.9547 22.7391 24.9455 17.3462 24.9558 11.9538C25.0281 11.8299 24.9906 11.6745 25.0732 11.5533C25.1123 11.4815 25.1493 11.4082 25.183 11.3337C25.3297 11.0919 25.5438 10.8777 25.7857 10.731C25.8134 10.7174 25.8683 10.6902 25.896 10.6766C25.9699 10.644 26.0444 10.6125 26.121 10.5864C26.19 10.5658 26.2612 10.5527 26.3319 10.5386Z" fill="#47A118"/>
</svg>
