<svg width="51" height="50" viewBox="0 0 51 50" fill="none" xmlns="http://www.w3.org/2000/svg">
<path d="M41.6783 14.5833V14.1667C41.6783 10.6663 41.6783 8.91616 40.9971 7.57922C40.3979 6.4032 39.4418 5.44707 38.2657 4.84787C36.9288 4.16666 35.1786 4.16666 31.6783 4.16666H18.345C14.8446 4.16666 13.0945 4.16666 11.7575 4.84787C10.5815 5.44707 9.62539 6.4032 9.02618 7.57922C8.34497 8.91616 8.34497 10.6663 8.34497 14.1667V35.8333C8.34497 39.3336 8.34497 41.0838 9.02618 42.4208C9.62539 43.5968 10.5815 44.5529 11.7575 45.1521C13.0945 45.8333 14.8446 45.8333 18.345 45.8333H26.0533M26.0533 22.9167H16.6783M23.97 31.25H16.6783M33.345 14.5833H16.6783M37.5116 37.5V26.0417C37.5116 24.3158 38.9107 22.9167 40.6366 22.9167C42.3625 22.9167 43.7616 24.3158 43.7616 26.0417V37.5C43.7616 40.9518 40.9634 43.75 37.5116 43.75C34.0599 43.75 31.2616 40.9518 31.2616 37.5V29.1667" stroke="#47A118" stroke-width="3" stroke-linecap="round" stroke-linejoin="round"/>
</svg>
