<svg width="49" height="50" viewBox="0 0 49 50" fill="none" xmlns="http://www.w3.org/2000/svg">
<path d="M1 43V33.1018C1 33.0397 1.03599 32.9832 1.09229 32.9569L7.01497 30.193C7.82976 29.8128 8.79788 30.177 9.16 31V31M1 43V48.4834C1 48.7169 1.24927 48.8658 1.45483 48.7551L12.5571 42.7769C13.3719 42.3382 13.7127 41.347 13.34 40.5V40.5M1 43L4 41.5M13.34 40.5V40.5C16.0177 39.5345 18.9584 39.5966 21.5929 40.6744L27.1747 42.9578C28.0499 43.3158 28.9864 43.5 29.9319 43.5V43.5C30.9655 43.5 31.9872 43.28 32.9291 42.8546L45.6062 37.1295C46.4702 36.7393 47.0642 35.9222 47.1689 34.98L47.177 34.9071C47.3493 33.3563 46.1354 32 44.575 32V32C44.1962 32 43.8219 32.0822 43.4779 32.241L37.5 35M13.34 40.5L9.16 31M9.16 31L15.6756 28.4203C17.2113 27.8123 18.8482 27.5 20.5 27.5V27.5M23 34L29.8948 36.1546C30.5979 36.3743 31.3613 36.2832 31.9929 35.9043L32.0778 35.8533C32.9359 35.3384 33.3919 34.3511 33.2273 33.3641V33.3641C33.0863 32.5181 32.5109 31.8086 31.7122 31.4961L22.4312 27.8644C21.8158 27.6236 21.1608 27.5 20.5 27.5V27.5M20.5 27.5L20.1565 22.6908C19.7734 17.3275 23.1831 12.4232 28.344 10.9144V10.9144C29.5164 10.5716 30.7361 10.4191 31.9567 10.4627L33 10.5H34.324C35.7587 10.5 37.1774 10.8011 38.4884 11.3838V11.3838C40.1338 12.115 41.5575 13.2666 42.6166 14.7228L42.8074 14.9851C44.2324 16.9445 45 19.3051 45 21.7279V24.5M29.5 10.5764V7M29.5 7H36M29.5 7L28.2653 4.77751C27.5884 3.55913 28.1136 2.02273 29.3947 1.47369V1.47369C30.0888 1.17621 30.8836 1.23015 31.5311 1.61869L31.6945 1.71667C32.498 2.19883 33.502 2.19883 34.3055 1.71667L34.5091 1.59453C35.1263 1.22424 35.8898 1.19491 36.5336 1.51678V1.51678C37.6055 2.05275 38.0143 3.37423 37.4323 4.42188L36 7M36 7V10.5" stroke="#47A118" stroke-width="2" stroke-linecap="round" stroke-linejoin="round"/>
<circle cx="7" cy="40" r="1" fill="#47A118"/>
<circle cx="45" cy="28" r="1" fill="#47A118"/>
<path d="M29.616 23.136H28.976C28.6987 23.136 28.464 23.0507 28.272 22.88C28.0907 22.6987 28 22.4747 28 22.208C28 21.9413 28.0907 21.7227 28.272 21.552C28.464 21.3813 28.6987 21.296 28.976 21.296H29.616V23.136ZM33.808 16C34.3627 16 34.88 16.16 35.36 16.48C35.8507 16.8 36.2453 17.232 36.544 17.776C36.8427 18.32 36.992 18.928 36.992 19.6C36.992 20.2613 36.8427 20.864 36.544 21.408C36.2453 21.952 35.8507 22.3893 35.36 22.72C34.88 23.04 34.3627 23.2 33.808 23.2H30.864L31.024 22.912V26.224C31.024 26.5013 30.9387 26.736 30.768 26.928C30.5973 27.1093 30.3733 27.2 30.096 27.2C29.8293 27.2 29.6107 27.1093 29.44 26.928C29.2693 26.736 29.184 26.5013 29.184 26.224V16.976C29.184 16.6987 29.2747 16.4693 29.456 16.288C29.648 16.096 29.8827 16 30.16 16H33.808ZM33.808 21.376C34.0107 21.376 34.208 21.2907 34.4 21.12C34.592 20.9493 34.752 20.7307 34.88 20.464C35.008 20.1867 35.072 19.8987 35.072 19.6C35.072 19.2907 35.008 19.0027 34.88 18.736C34.752 18.4693 34.592 18.256 34.4 18.096C34.208 17.9253 34.0107 17.84 33.808 17.84H30.832L31.024 17.552V21.632L30.848 21.376H33.808ZM28.976 25.536C28.6987 25.536 28.464 25.456 28.272 25.296C28.0907 25.1253 28 24.9067 28 24.64C28 24.3947 28.0907 24.192 28.272 24.032C28.464 23.8613 28.6987 23.776 28.976 23.776H31.76C32.0373 23.776 32.2667 23.8613 32.448 24.032C32.64 24.192 32.736 24.3947 32.736 24.64C32.736 24.9067 32.64 25.1253 32.448 25.296C32.2667 25.456 32.0373 25.536 31.76 25.536H28.976Z" fill="#47A118"/>
</svg>
