<svg width="50" height="50" viewBox="0 0 50 50" fill="none" xmlns="http://www.w3.org/2000/svg">
<path d="M41.6724 26.0417V14.1667C41.6724 10.6663 41.6724 8.91616 40.9912 7.57922C40.392 6.4032 39.4359 5.44707 38.2599 4.84787C36.9229 4.16666 35.1728 4.16666 31.6724 4.16666H18.3391C14.8388 4.16666 13.0886 4.16666 11.7517 4.84787C10.5757 5.44707 9.61953 6.4032 9.02032 7.57922C8.33911 8.91616 8.33911 10.6663 8.33911 14.1667V35.8333C8.33911 39.3336 8.33911 41.0838 9.02032 42.4208C9.61953 43.5968 10.5757 44.5529 11.7517 45.1521C13.0886 45.8333 14.8388 45.8333 18.3391 45.8333H25.0058M29.1724 22.9167H16.6724M20.8391 31.25H16.6724M33.3391 14.5833H16.6724M30.2141 39.5833L34.3808 43.75L43.7558 34.375" stroke="#47A118" stroke-width="3" stroke-linecap="round" stroke-linejoin="round"/>
</svg>
