<svg width="51" height="50" viewBox="0 0 51 50" fill="none" xmlns="http://www.w3.org/2000/svg">
<circle cx="25.0116" cy="25" r="10" stroke="#47A118" stroke-width="2"/>
<circle cx="25.0116" cy="22" r="4" stroke="#47A118" stroke-width="2"/>
<path d="M18.5116 32L18.6528 30.5877C18.88 28.3164 20.1123 26.2662 22.0116 25V25" stroke="#47A118" stroke-width="2"/>
<path d="M32.0116 32L31.8909 30.9436C31.6072 28.4616 30.1695 26.2588 28.0116 25V25" stroke="#47A118" stroke-width="2"/>
<circle cx="41.5116" cy="8.5" r="7.5" stroke="#47A118" stroke-width="2"/>
<path d="M44.3752 6.18175C44.3752 7.76329 43.0931 9.04539 41.5116 9.04539C39.93 9.04539 38.6479 7.76329 38.6479 6.18175C38.6479 4.60021 39.93 3.31812 41.5116 3.31812C43.0931 3.31812 44.3752 4.60021 44.3752 6.18175Z" stroke="#47A118" stroke-width="2"/>
<path d="M36.4889 13.9091L36.598 12.8177C36.7735 11.0626 37.7258 9.4784 39.1934 8.5V8.5" stroke="#47A118" stroke-width="2"/>
<path d="M46.9207 13.9091L46.8274 13.0928C46.6082 11.1749 45.4972 9.47268 43.8297 8.5V8.5" stroke="#47A118" stroke-width="2"/>
<circle cx="41.5116" cy="41.5" r="7.5" stroke="#47A118" stroke-width="2"/>
<path d="M44.3752 39.1818C44.3752 40.7633 43.0931 42.0454 41.5116 42.0454C39.93 42.0454 38.6479 40.7633 38.6479 39.1818C38.6479 37.6002 39.93 36.3181 41.5116 36.3181C43.0931 36.3181 44.3752 37.6002 44.3752 39.1818Z" stroke="#47A118" stroke-width="2"/>
<path d="M36.4889 46.9091L36.598 45.8177C36.7735 44.0626 37.7258 42.4784 39.1934 41.5V41.5" stroke="#47A118" stroke-width="2"/>
<path d="M46.9207 46.9091L46.8274 46.0928C46.6082 44.1749 45.4972 42.4727 43.8297 41.5V41.5" stroke="#47A118" stroke-width="2"/>
<circle cx="8.5116" cy="41.5" r="7.5" stroke="#47A118" stroke-width="2"/>
<path d="M11.3752 39.1818C11.3752 40.7633 10.0931 42.0454 8.51159 42.0454C6.93004 42.0454 5.64795 40.7633 5.64795 39.1818C5.64795 37.6002 6.93004 36.3181 8.51159 36.3181C10.0931 36.3181 11.3752 37.6002 11.3752 39.1818Z" stroke="#47A118" stroke-width="2"/>
<path d="M3.48889 46.9091L3.59803 45.8177C3.77354 44.0626 4.72583 42.4784 6.19344 41.5V41.5" stroke="#47A118" stroke-width="2"/>
<path d="M13.9207 46.9091L13.8274 46.0928C13.6082 44.1749 12.4972 42.4727 10.8297 41.5V41.5" stroke="#47A118" stroke-width="2"/>
<circle cx="8.5116" cy="8.5" r="7.5" stroke="#47A118" stroke-width="2"/>
<path d="M11.3752 6.18175C11.3752 7.76329 10.0931 9.04539 8.51159 9.04539C6.93004 9.04539 5.64795 7.76329 5.64795 6.18175C5.64795 4.60021 6.93004 3.31812 8.51159 3.31812C10.0931 3.31812 11.3752 4.60021 11.3752 6.18175Z" stroke="#47A118" stroke-width="2"/>
<path d="M3.48889 13.9091L3.59803 12.8177C3.77354 11.0626 4.72583 9.4784 6.19344 8.5V8.5" stroke="#47A118" stroke-width="2"/>
<path d="M13.9207 13.9091L13.8274 13.0928C13.6082 11.1749 12.4972 9.47268 10.8297 8.5V8.5" stroke="#47A118" stroke-width="2"/>
<path d="M18.0116 18L14.0116 14M32.0116 18L36.5116 14M18.0116 32L14.0116 36M32.5116 32L36.5116 35.5" stroke="#47A118" stroke-width="2"/>
</svg>
