<svg width="101" height="100" viewBox="0 0 101 100" fill="none" xmlns="http://www.w3.org/2000/svg">
<path d="M75.2883 2.7649C79.2233 0.679899 84.3983 1.3799 87.6433 4.4299C91.0333 7.4449 92.1733 12.6649 90.3133 16.8099C89.5383 18.7149 88.1033 20.2299 86.5333 21.5149C86.5083 27.3649 86.5283 33.2149 86.5233 39.0649C88.0933 39.1699 89.9983 38.5749 91.2283 39.8649C93.8033 41.9799 96.4283 44.0349 99.0233 46.1299C99.0233 50.2699 99.0233 54.4099 99.0233 58.5499C96.0733 60.9099 93.1333 63.2849 90.1683 65.6299C88.7033 65.6249 87.2383 65.6249 85.7783 65.6199C86.8733 62.8749 87.9583 60.1199 89.0883 57.3849C90.0283 55.3699 89.5383 53.0999 89.6383 50.9599C88.6033 50.4399 87.5683 49.9249 86.5283 49.4049C86.5233 50.1249 86.5183 50.8399 86.5183 51.5599C82.3533 51.5649 78.1883 51.5649 74.0283 51.5599C74.0233 50.8399 74.0183 50.1249 74.0133 49.4049C72.9733 49.9199 71.9383 50.4399 70.9033 50.9649C71.0033 53.0399 70.5283 55.2349 71.3833 57.2099C72.5233 60.0049 73.6433 62.8099 74.7533 65.6199C73.2933 65.6199 71.8383 65.6249 70.3783 65.6349C67.4083 63.2949 64.4683 60.9199 61.5183 58.5549C61.5233 54.4099 61.5183 50.2699 61.5233 46.1249C64.4483 43.7699 67.3933 41.4299 70.3183 39.0699C71.5533 39.0599 72.7833 39.0599 74.0183 39.0549C74.0233 33.1999 74.0133 27.3449 74.0233 21.4899C73.7983 21.3099 73.3533 20.9449 73.1283 20.7649C59.2383 25.4899 45.3433 30.2099 31.4583 34.9399C30.9883 35.1549 30.2083 35.3699 30.3033 36.0399C30.2283 45.4049 30.2883 54.7749 30.2733 64.1449C33.8083 64.9899 36.6333 68.2599 36.5183 71.9599C36.5433 76.6049 36.5083 81.2499 36.5233 85.8949C39.0733 85.5849 42.0683 86.7549 42.6233 89.5099C42.9633 92.4699 42.6833 95.4649 42.7683 98.4399C29.2283 98.4399 15.6883 98.4399 2.14334 98.4399C2.24834 95.4249 1.91834 92.3799 2.31334 89.3899C2.93334 86.6799 5.88834 85.6099 8.39834 85.8999C8.41834 81.0949 8.34834 76.2949 8.42334 71.4949C8.47834 67.9549 11.2783 64.9599 14.6333 64.1549C14.6583 54.7249 14.6333 45.2949 14.6483 35.8649C12.3733 33.3549 11.0633 29.9099 11.6433 26.5149C12.3033 21.4299 16.9583 17.2749 22.0833 17.1949C23.9283 16.9849 25.6833 18.0649 27.5133 17.6699C41.5483 14.9999 55.6033 12.4299 69.6383 9.7549C70.5283 6.8099 72.5033 4.1549 75.2883 2.7649ZM77.7333 5.1149C73.9933 6.3099 71.6533 10.5899 72.6883 14.3849C73.6033 18.4149 78.0533 21.1599 82.0633 20.0949C86.2783 19.2149 89.0883 14.4499 87.7733 10.3349C86.6783 6.1649 81.7833 3.5899 77.7333 5.1149ZM30.2033 20.3149C32.9183 23.1549 34.0283 27.2949 33.0433 31.1099C45.6483 26.7999 58.2683 22.5149 70.8833 18.2299C70.0233 16.6049 69.5033 14.8399 69.2933 13.0149C56.2633 15.4499 43.2383 17.9099 30.2033 20.3149ZM20.2433 20.6349C16.5083 21.6599 13.9833 25.7349 14.7783 29.5349C15.4233 33.5499 19.5833 36.5449 23.5983 35.8449C27.9033 35.3199 31.1183 30.7449 30.0933 26.5099C29.3033 22.1849 24.4333 19.2599 20.2433 20.6349ZM77.1333 23.0399C77.1683 31.5049 77.1333 39.9699 77.1483 48.4349C79.2283 48.4399 81.3133 48.4399 83.3933 48.4349C83.4033 39.9699 83.3783 31.4999 83.4083 23.0349C81.3433 23.5249 79.1983 23.5299 77.1333 23.0399ZM17.7583 38.0499C17.7933 46.7199 17.7583 55.3899 17.7733 64.0599C20.8983 64.0599 24.0183 64.0649 27.1433 64.0599C27.1533 55.3899 27.1333 46.7199 27.1483 38.0549C24.1683 39.3649 20.7383 39.3599 17.7583 38.0499ZM70.8383 42.6599C68.7683 44.3099 66.7133 45.9749 64.6433 47.6249C64.6483 50.7699 64.6483 53.9099 64.6433 57.0549C66.2683 58.3649 67.8983 59.6699 69.5333 60.9649C68.9833 59.4549 68.2083 58.0199 67.8333 56.4549C67.6483 53.9899 67.8333 51.5099 67.7633 49.0449C69.8433 47.9799 71.9383 46.9549 74.0233 45.8999C74.0183 44.6549 74.0183 43.4149 74.0183 42.1699C72.9633 42.2649 71.7133 41.8899 70.8383 42.6599ZM86.5233 42.1749C86.5233 43.4149 86.5233 44.6599 86.5233 45.8999C88.6033 46.9499 90.6933 47.9849 92.7733 49.0349C92.7333 51.3749 92.8383 53.7149 92.7483 56.0549C92.5033 57.7849 91.5783 59.3249 91.0083 60.9599C92.6383 59.6699 94.2583 58.3649 95.8883 57.0749C95.9033 53.9249 95.8883 50.7749 95.8983 47.6299C93.8683 46.0049 91.8433 44.3699 89.8083 42.7499C88.9283 41.8849 87.6233 42.2499 86.5233 42.1749ZM11.5633 71.4699C11.4433 74.2049 11.5633 76.9449 11.5233 79.6849C17.7733 79.6899 24.0233 79.6799 30.2733 79.6899C30.2683 80.7299 30.2683 81.7699 30.2733 82.8099C24.0233 82.8199 17.7733 82.8099 11.5233 82.8149C11.5233 83.8549 11.5233 84.8949 11.5233 85.9349C18.8133 85.9399 26.1033 85.9399 33.3983 85.9349C33.3933 82.8099 33.3933 79.6899 33.3983 76.5649C27.1433 76.5549 20.8933 76.5649 14.6433 76.5599C14.6483 75.5199 14.6483 74.4799 14.6433 73.4399C20.9083 73.4349 27.1683 73.4449 33.4283 73.4349C33.3633 72.1849 33.4883 70.8499 32.8633 69.7149C32.0733 68.1549 30.3683 67.1449 28.6233 67.1999C24.4533 67.1849 20.2783 67.1699 16.1083 67.2049C13.7983 67.1799 11.6633 69.1449 11.5633 71.4699ZM5.35334 90.1799C5.15334 91.8799 5.30834 93.5999 5.27834 95.3099C16.7283 95.3099 28.1833 95.3149 39.6383 95.3099C39.6083 93.5549 39.7733 91.7899 39.5383 90.0449C39.2683 89.2549 38.3883 88.9999 37.6383 89.0649C27.6033 89.0549 17.5683 89.0699 7.53334 89.0549C6.68834 88.9999 5.53834 89.1699 5.35334 90.1799Z" fill="#D8D6D6"/>
<path d="M78.2883 8.24485C81.4083 6.60485 85.4683 9.54485 84.9283 13.0098C84.6983 16.5098 80.0883 18.4998 77.4033 16.2048C74.6383 14.2598 75.1683 9.53985 78.2883 8.24485ZM79.6583 11.0498C78.5633 11.4448 78.3633 13.0898 79.3183 13.7498C80.2633 14.5498 81.9083 13.7498 81.8333 12.5048C81.9033 11.4148 80.6283 10.5898 79.6583 11.0498Z" fill="#D8D6D6"/>
<path d="M20.7683 23.7498C24.0083 22.3198 27.8933 25.5698 27.0583 29.0098C26.5483 32.4148 21.9383 34.0648 19.4133 31.6898C16.7183 29.5898 17.5383 24.8398 20.7683 23.7498ZM21.7883 26.7048C20.6583 27.1648 20.5833 28.9398 21.6783 29.4898C22.6833 30.1348 24.1483 29.2198 24.0183 28.0398C24.0233 26.9648 22.7333 26.2048 21.7883 26.7048Z" fill="#D8D6D6"/>
<path d="M76.0233 67.1948C78.8433 67.1748 81.6633 67.1898 84.4883 67.1848C84.8333 68.1348 85.1833 69.0848 85.5433 70.0348C86.4783 69.6298 87.4033 69.2098 88.3233 68.7748C90.3283 70.7548 92.3183 72.7498 94.3033 74.7548C93.8733 75.6648 93.4483 76.5798 93.0283 77.4998C93.9733 77.8848 94.9333 78.2398 95.8983 78.5848C95.8983 81.4048 95.8983 84.2298 95.8933 87.0498C94.9633 87.3748 94.0283 87.6948 93.0983 88.0098C93.4183 88.9948 93.8333 89.9448 94.3033 90.8648C92.3183 92.8648 90.3284 94.8548 88.3283 96.8398C87.4033 96.4098 86.4733 95.9898 85.5433 95.5798C85.1833 96.5298 84.8333 97.4798 84.4933 98.4398C81.6683 98.4398 78.8433 98.4398 76.0233 98.4398C75.7033 97.5148 75.3933 96.5898 75.0983 95.6648C74.0933 95.9448 73.1333 96.3598 72.2133 96.8448C70.2083 94.8598 68.2133 92.8648 66.2283 90.8648C66.7083 89.9398 67.1183 88.9848 67.4133 87.9848C66.4883 87.6798 65.5633 87.3698 64.6433 87.0498C64.6433 84.2248 64.6433 81.4048 64.6433 78.5848C65.5933 78.2398 66.5433 77.8898 67.4883 77.5348C67.0783 76.5998 66.6633 75.6698 66.2333 74.7498C68.2183 72.7448 70.2183 70.7548 72.2183 68.7648C73.0233 69.1648 73.8233 69.6098 74.6833 69.9048C75.6483 69.4298 75.5833 68.0698 76.0233 67.1948ZM78.2683 70.3198C78.0533 70.9148 77.8383 71.5198 77.6283 72.1198C76.6033 72.5148 75.5883 72.9398 74.5883 73.3898C74.0033 73.1098 73.4233 72.8348 72.8383 72.5548C71.8933 73.4948 70.9533 74.4448 70.0133 75.3898C70.2933 75.9648 70.5683 76.5448 70.8483 77.1198C70.3983 78.1298 69.9783 79.1448 69.5733 80.1698C68.9733 80.3848 68.3733 80.5948 67.7783 80.8098C67.7733 82.1398 67.7683 83.4698 67.7733 84.8048C68.3733 85.0148 68.9733 85.2298 69.5733 85.4448C69.9733 86.4648 70.3983 87.4798 70.8433 88.4848C70.5683 89.0698 70.2933 89.6548 70.0183 90.2348C70.9533 91.1798 71.8933 92.1198 72.8383 93.0548C73.4183 92.7798 73.9983 92.5048 74.5833 92.2298C75.5933 92.6748 76.6083 93.0948 77.6333 93.4998C77.8433 94.0998 78.0533 94.7048 78.2683 95.3098C79.5983 95.3098 80.9333 95.3098 82.2633 95.3048C82.4733 94.7048 82.6883 94.0998 82.9033 93.4998C83.9283 93.0948 84.9433 92.6698 85.9533 92.2248C86.5283 92.5048 87.1083 92.7798 87.6883 93.0598C88.6334 92.1198 89.5783 91.1798 90.5183 90.2398C90.2383 89.6548 89.9583 89.0698 89.6833 88.4848C90.1333 87.4848 90.5533 86.4698 90.9534 85.4448C91.5583 85.2298 92.1583 85.0198 92.7633 84.8098C92.7683 83.4748 92.7683 82.1448 92.7683 80.8148C92.1633 80.5998 91.5583 80.3848 90.9583 80.1698C90.5533 79.1448 90.1333 78.1248 89.6833 77.1198C89.9583 76.5398 90.2383 75.9648 90.5233 75.3848C89.5783 74.4398 88.6334 73.4948 87.6883 72.5498C87.1083 72.8298 86.5333 73.1098 85.9583 73.3948C84.9483 72.9398 83.9283 72.5148 82.9033 72.1148C82.6883 71.5148 82.4733 70.9148 82.2583 70.3148C80.9283 70.3148 79.5983 70.3148 78.2683 70.3198Z" fill="#D8D6D6"/>
<path d="M78.2433 75.2599C82.5033 73.9849 87.3233 77.0899 87.9683 81.4749C88.7933 85.5749 85.7183 89.8949 81.5933 90.5099C77.4583 91.3449 73.1033 88.1999 72.5533 84.0299C71.8533 80.2049 74.4883 76.1949 78.2433 75.2599ZM79.2783 78.2249C75.9183 78.7949 74.3683 83.3599 76.7033 85.8499C78.7883 88.5299 83.4933 87.7449 84.6183 84.5499C86.1333 81.2649 82.7683 77.2999 79.2783 78.2249Z" fill="#D8D6D6"/>
</svg>
