<svg width="101" height="100" viewBox="0 0 101 100" fill="none" xmlns="http://www.w3.org/2000/svg">
<path d="M57.6393 6.46375C59.8845 6.01356 62.2731 6.28309 64.3532 7.245C67.6794 8.74305 70.1208 12.0077 70.6188 15.622C74.3005 15.6288 77.9821 15.621 81.6637 15.6259C83.5749 15.62 85.485 16.3407 86.8923 17.6376C88.2223 18.8329 89.1276 20.495 89.3903 22.2655C89.5075 23.0077 89.4753 23.7616 89.4801 24.5097C89.4792 42.3505 89.4801 60.1903 89.4792 78.0311C89.488 79.1425 89.2653 80.2567 88.8161 81.2743C87.7438 83.7225 85.3522 85.5458 82.6911 85.869C81.5407 85.996 80.3796 85.9149 79.2253 85.9374C77.4342 85.9364 75.6432 85.9413 73.8532 85.9354C73.3259 85.9393 72.8092 85.6552 72.5329 85.2059C72.1305 84.5936 72.2487 83.7098 72.7985 83.2255C73.1305 82.9081 73.6012 82.7841 74.0524 82.8095C76.6237 82.8124 79.195 82.8153 81.7663 82.8085C83.7175 82.8026 85.5485 81.4188 86.1286 79.5624C86.4294 78.6942 86.3405 77.7636 86.3542 76.8612C86.3532 59.119 86.3542 41.3768 86.3542 23.6347C86.4528 21.7147 85.2419 19.8192 83.4577 19.1044C82.8913 18.87 82.279 18.7489 81.6657 18.7509C71.7712 18.7499 61.8757 18.7509 51.9811 18.7499C51.9762 19.7919 51.9811 20.8329 51.9792 21.8749C54.0622 21.8729 56.1442 21.8768 58.2272 21.8729C59.0651 21.8222 59.8464 22.6024 59.7936 23.4403C59.7907 25.5223 59.7927 27.6054 59.7917 29.6874C67.6052 29.6874 75.4177 29.6845 83.2311 29.6893C84.0622 29.6669 84.8092 30.412 84.7897 31.243C84.8161 32.079 84.068 32.8309 83.2311 32.8114C75.4186 32.8153 67.6052 32.8124 59.7917 32.8124C59.7897 33.8573 59.7966 34.9022 59.7887 35.9472C59.7975 36.455 59.5221 36.9325 59.1188 37.2294C56.7399 39.1356 54.3552 41.035 51.9782 42.9432C51.9792 44.7743 51.9821 46.6063 51.9772 48.4384C51.9987 49.2733 51.2516 50.0184 50.4177 49.9989C49.5856 50.0204 48.8337 49.2743 48.8561 48.4403C48.8522 46.6083 48.8512 44.7763 48.8571 42.9442C46.568 41.1024 44.2702 39.2723 41.9772 37.4354C41.5075 37.1122 41.0622 36.6503 41.0485 36.0438C41.0309 34.9667 41.0466 33.8895 41.0417 32.8124C32.1882 32.8134 23.3346 32.8124 14.4811 32.8124C14.4772 47.5595 14.4811 62.3065 14.4792 77.0526C14.488 77.8651 14.4196 78.6991 14.6794 79.4833C15.2272 81.3788 17.0895 82.8016 19.0671 82.8085C22.7468 82.8173 26.4255 82.8095 30.1042 82.8124C30.1032 76.1718 30.1042 69.5311 30.1042 62.8905C30.1071 62.6356 30.0856 62.3768 30.1296 62.1249C30.235 61.7098 30.5153 61.3436 30.8854 61.1298C36.861 58.6571 42.8249 56.1522 48.7975 53.6718C49.446 53.4354 50.071 52.9628 50.7985 53.1532C57.1813 55.8114 63.5671 58.4725 69.9499 61.1307C70.3952 61.3876 70.7282 61.8778 70.7302 62.4013C70.7262 69.7274 70.7331 77.0546 70.7272 84.3817C70.7331 85.0067 70.3239 85.6014 69.7419 85.827C63.4538 88.4589 57.153 91.0624 50.8688 93.7001C50.3464 93.8593 49.8141 93.6845 49.3532 93.4384C43.4079 90.9511 37.4548 88.4794 31.5075 85.997C31.279 85.9013 31.0261 85.9432 30.7858 85.9364C26.9772 85.9393 23.1686 85.9364 19.3591 85.9384C17.1335 85.9989 14.9079 85.0487 13.4128 83.3993C12.0661 81.9628 11.3259 79.9901 11.3542 78.0243C11.3532 59.8612 11.3532 41.6981 11.3542 23.5341C11.3307 21.872 11.8571 20.2089 12.8327 18.8622C14.2536 16.8895 16.6237 15.6347 19.0612 15.6268C29.029 15.621 38.9958 15.6259 48.9636 15.6249C49.318 13.1444 50.5553 10.8036 52.4108 9.11903C53.8688 7.78016 55.697 6.8495 57.6393 6.46375ZM54.2223 11.7098C53.1657 12.7763 52.4352 14.1552 52.1335 15.6249C57.238 15.6249 62.3434 15.6239 67.4489 15.6249C67.0495 13.6503 65.8542 11.8534 64.1842 10.7264C62.7653 9.75086 61.0143 9.27723 59.2975 9.39246C57.3962 9.49989 55.5524 10.3485 54.2223 11.7098ZM15.8561 20.1249C14.9772 20.9833 14.4743 22.205 14.4802 23.4325C14.4782 25.5175 14.4811 27.6024 14.4792 29.6874C23.3327 29.6864 32.1862 29.6874 41.0397 29.6874C41.0427 27.702 41.0407 25.7177 41.0407 23.7333C41.0446 23.4393 41.0085 23.1298 41.1374 22.8554C41.3678 22.2763 41.9665 21.8368 42.6012 21.8729C44.6852 21.8768 46.7682 21.8739 48.8522 21.8749C48.8571 20.8329 48.8522 19.7909 48.8542 18.7499C38.9596 18.7509 29.0641 18.7499 19.1696 18.7509C17.9401 18.7431 16.7175 19.246 15.8561 20.1249ZM44.1667 24.9999C44.1647 28.3925 44.1725 31.785 44.1637 35.1776C46.2438 36.8524 48.3346 38.5145 50.4186 40.1854C52.5026 38.5194 54.5876 36.8534 56.6686 35.1835C56.6657 34.3925 56.6647 33.6024 56.6667 32.8124C53.5397 32.8114 50.4137 32.8153 47.2868 32.8114C46.6296 32.8173 46.0007 32.3622 45.8083 31.7323C45.5671 31.0507 45.8884 30.2401 46.5192 29.8925C46.9567 29.6229 47.485 29.6952 47.9733 29.6874C50.8708 29.6854 53.7682 29.6893 56.6667 29.6854C56.6667 28.1239 56.6647 26.5614 56.6667 24.9999C52.4997 25.0009 48.3337 25.0009 44.1667 24.9999ZM35.7438 62.4999C40.6345 64.5448 45.527 66.5829 50.4225 68.6161C55.319 66.5848 60.2106 64.5429 65.1032 62.4999C60.2106 60.4589 55.319 58.4139 50.4216 56.3837C45.528 58.4188 40.6335 60.453 35.7438 62.4999ZM33.2311 64.8436C33.2214 71.0018 33.2428 77.16 33.2204 83.3173C38.4225 85.5126 43.6462 87.66 48.8542 89.8436C48.8571 83.6835 48.8464 77.5233 48.8591 71.3632C43.6559 69.1766 38.4421 67.0136 33.2311 64.8436ZM51.9743 71.368C51.987 77.5272 51.9753 83.6854 51.9802 89.8446C57.1901 87.6698 62.4098 85.5165 67.61 83.3192C67.5964 77.161 67.6071 71.0038 67.6042 64.8466C62.3952 67.0233 57.1755 69.1757 51.9743 71.368Z" fill="#D8D6D6"/>
</svg>
