<svg width="91" height="90" viewBox="0 0 91 90" fill="none" xmlns="http://www.w3.org/2000/svg">
<path d="M2.77681 2.70692C3.61089 1.81219 4.82993 1.2954 6.05425 1.3244C32.1859 1.3244 58.3184 1.32352 84.45 1.3244C85.0802 1.31561 85.7122 1.4369 86.2896 1.69091C87.8496 2.36678 88.9448 3.99979 88.9246 5.70751C88.9289 25.7756 88.9246 45.8445 88.9272 65.9135C88.9474 66.6614 88.8103 67.4199 88.4702 68.0914C87.7547 69.5592 86.1771 70.5594 84.5388 70.5435C74.7961 70.5506 65.0535 70.5444 55.3108 70.5471C56.5369 73.095 57.7735 75.6377 58.9952 78.1883L59.0417 78.2208C60.2204 78.2331 61.4157 78.1557 62.5723 78.4396C65.6124 79.1014 68.2166 81.4262 69.2309 84.3661C69.5833 85.3953 69.7864 86.4939 69.7143 87.5838C69.6581 88.2473 69.0138 88.7211 68.3678 88.6745C52.9852 88.6771 37.6035 88.6745 22.2217 88.6762C21.7647 88.6973 21.2681 88.5479 21.0009 88.1551C20.6643 87.6681 20.775 87.045 20.8058 86.493C21.0501 83.6911 22.6955 81.0702 25.0861 79.598C26.0845 78.9758 27.2034 78.546 28.3635 78.3509C29.3892 78.168 30.436 78.2278 31.4731 78.2287C32.7247 75.6746 33.949 73.1073 35.1891 70.5471C25.4473 70.5435 15.7055 70.5514 5.96372 70.5435C4.21294 70.5638 2.53862 69.4133 1.89439 67.7917C1.64565 67.2002 1.55952 66.5542 1.57271 65.917C1.57446 45.877 1.57271 25.8371 1.57358 5.79715C1.55073 4.66073 1.99019 3.52694 2.77681 2.70692ZM4.22085 5.70926C4.22085 21.8056 4.21909 37.9018 4.22173 53.999C31.5742 54.0016 58.9266 53.999 86.2782 53.9999C86.2808 38.1084 86.2782 22.216 86.2799 6.3245C86.272 5.94745 86.3142 5.55985 86.2008 5.19423C85.9829 4.4911 85.2841 3.95673 84.5423 3.97255C58.3483 3.97255 32.1551 3.97342 5.96108 3.97255C5.0356 3.94618 4.19888 4.78465 4.22085 5.70926ZM4.21997 56.5144C4.22524 59.7664 4.21294 63.0183 4.22612 66.2703C4.21733 67.1826 5.06372 67.9429 5.96284 67.8963C32.1261 67.9007 58.2903 67.8963 84.4544 67.8989C84.9361 67.9138 85.4327 67.76 85.7807 67.4164C86.1358 67.078 86.2949 66.5779 86.2799 66.0954C86.279 62.9023 86.2782 59.7093 86.2799 56.5171C58.9266 56.5109 31.5733 56.5144 4.21997 56.5144ZM34.3972 78.2199C41.6332 78.2252 48.8684 78.2208 56.1036 78.2225C54.8256 75.664 53.5442 73.1073 52.268 70.5488C47.5474 70.5435 42.8268 70.5506 38.1062 70.5444C36.8652 73.1003 35.6347 75.6623 34.3972 78.2199ZM25.8595 82.2936C24.6932 83.2288 23.8802 84.5735 23.5445 86.0272C38.0148 86.0272 52.4851 86.0263 66.9545 86.0272C66.5327 83.677 64.6527 81.6907 62.3508 81.0851C61.2777 80.7802 60.1536 80.8847 59.0523 80.8645C49.3834 80.8672 39.7146 80.8619 30.0457 80.8672C28.5411 80.839 27.0258 81.3356 25.8595 82.2936Z" fill="#D8D6D6"/>
<path d="M28.142 6.90459C33.8918 6.71387 39.6408 7.70703 45.0891 9.51494C46.1385 9.20644 47.1704 8.82148 48.2321 8.54726C52.3998 7.38623 56.739 6.84043 61.0641 6.94326C66.3129 7.05576 71.5187 8.10693 76.4687 9.83486C76.9662 10.0168 77.3028 10.5424 77.2799 11.0688C77.279 23.8754 77.2799 36.6819 77.279 49.4885C77.2843 49.8603 77.1463 50.2496 76.8466 50.4843C76.4081 50.8042 75.8183 50.9237 75.298 50.7506C67.9451 48.5762 60.1096 48.0523 52.5361 49.26C50.3713 49.6071 48.2224 50.0659 46.1174 50.6785C45.6446 50.9431 45.075 51.0169 44.5547 50.8499C43.7874 50.5238 42.9657 50.3542 42.1641 50.1336C37.6131 48.9743 32.8996 48.4478 28.2053 48.5973C23.7115 48.737 19.2422 49.4841 14.9312 50.7506C14.4961 50.9009 14.004 50.9352 13.5794 50.733C13.1409 50.5379 12.9352 50.0352 12.9554 49.5781C12.9554 36.7426 12.9554 23.9062 12.9554 11.0706C12.9352 10.6294 13.111 10.1434 13.5206 9.92803C18.1805 8.11748 23.1393 7.05049 28.142 6.90459ZM27.7659 9.5501C23.6218 9.72412 19.5024 10.523 15.5974 11.9223C15.6106 23.8314 15.5983 35.7406 15.6036 47.6489C20.6362 46.3974 25.8244 45.6723 31.0178 45.812C35.2436 45.9192 39.4369 46.6092 43.529 47.6437C43.529 35.6879 43.5317 23.7312 43.5273 11.7746C38.449 10.1565 33.0999 9.31807 27.7659 9.5501ZM58.7869 9.53428C54.5901 9.66523 50.4197 10.4466 46.4417 11.7843C46.44 23.7822 46.4417 35.7802 46.4409 47.779C48.0765 47.3624 49.7218 46.9757 51.3873 46.7006C55.5912 45.9553 59.8846 45.7698 64.1412 46.0555C67.597 46.2805 71.0309 46.8509 74.3672 47.779C74.3707 35.8268 74.362 23.8745 74.3716 11.9223C69.3707 10.226 64.0708 9.36465 58.7869 9.53428Z" fill="#D8D6D6"/>
<path d="M19.8689 16.9857C20.0342 16.9479 20.2047 16.9409 20.3734 16.9382C25.9712 16.9409 31.5689 16.9391 37.1667 16.9391C37.4681 16.9409 37.7845 16.969 38.0456 17.1351C38.7962 17.586 38.8287 18.82 38.1326 19.335C37.8566 19.5424 37.5015 19.5943 37.1658 19.5881C31.5382 19.5864 25.9105 19.5899 20.2829 19.5864C19.6975 19.6048 19.121 19.2041 18.9636 18.6354C18.7597 17.9622 19.1377 17.1193 19.8689 16.9857Z" fill="#D8D6D6"/>
<path d="M52.0307 16.9855C52.2003 16.9486 52.3752 16.9416 52.5492 16.939C58.2015 16.939 63.8528 16.9398 69.5042 16.939C69.8022 16.9416 70.1151 16.9838 70.3691 17.1534C71.1179 17.6351 71.1117 18.92 70.3506 19.3867C70.0992 19.5449 69.7978 19.5889 69.5068 19.588C63.8818 19.588 58.2577 19.5862 52.6336 19.5889C52.2302 19.6021 51.7907 19.5484 51.4831 19.2619C50.7633 18.6194 51.0199 17.1684 52.0307 16.9855Z" fill="#D8D6D6"/>
<path d="M20.1229 23.8313C25.7752 23.8137 31.4283 23.8304 37.0805 23.8225C37.4215 23.8181 37.7854 23.8384 38.0772 24.037C38.812 24.5125 38.8164 25.7535 38.0965 26.2439C37.825 26.4338 37.4839 26.4716 37.1623 26.4742C31.539 26.4689 25.9158 26.4768 20.2925 26.4698C19.534 26.5067 18.8221 25.8071 18.9179 25.0389C18.9232 24.3929 19.4734 23.8331 20.1229 23.8313Z" fill="#D8D6D6"/>
<path d="M52.9316 26.4875C52.6143 25.5128 53.6997 24.4696 54.6604 24.7535C59.8117 26.2063 64.9647 27.6539 70.1133 29.112C70.4552 29.1814 70.6046 29.5347 70.6697 29.8415C70.7532 30.2818 70.9289 30.7573 70.7285 31.1932C70.6046 31.5184 70.3242 31.7425 70.0351 31.9174C69.0938 32.5239 68.1604 33.14 67.2217 33.75C68.599 35.1263 69.9744 36.5053 71.3534 37.8808C71.5855 38.1049 71.8254 38.3431 71.9203 38.6622C72.0873 39.1359 71.9045 39.6738 71.5477 40.0104C70.348 41.2127 69.1439 42.4125 67.945 43.6148C67.6102 43.962 67.082 44.1755 66.6091 44.0112C66.3472 43.9294 66.1134 43.7739 65.9262 43.5752C64.5076 42.1505 63.0847 40.7302 61.6626 39.309C61.0887 40.1835 60.52 41.0607 59.9479 41.937C59.7528 42.2323 59.5787 42.5698 59.2535 42.7438C58.8747 42.9741 58.401 42.9354 57.9932 42.8124C57.6153 42.6708 57.3797 42.3017 57.2848 41.9255C55.8346 36.7787 54.3809 31.6335 52.9316 26.4875ZM56.2363 27.7945C57.2461 31.2767 58.2657 34.7554 59.2729 38.2376C59.7616 37.5609 60.2001 36.8481 60.6739 36.1599C61.1186 35.5869 62.0845 35.5948 62.5688 36.116C64.0761 37.6145 65.5773 39.1192 67.0784 40.6248C67.7157 40.0271 68.3186 39.3925 68.9408 38.7791C67.4678 37.2111 65.9868 35.6519 64.5164 34.0813C64.1016 33.5794 63.9935 32.6671 64.5841 32.2514C65.245 31.7847 65.935 31.3584 66.5986 30.8953C66.5977 30.8742 66.595 30.8329 66.5942 30.8118C63.1427 29.8019 59.6904 28.7956 56.2363 27.7945Z" fill="#D8D6D6"/>
<path d="M19.7959 30.6377C20.1273 30.5463 20.4744 30.5788 20.8137 30.5735C26.2937 30.5761 31.7728 30.5718 37.2528 30.5753C37.6702 30.5638 38.1159 30.7097 38.369 31.0595C38.7566 31.593 38.7188 32.4262 38.231 32.8868C37.9462 33.1549 37.5402 33.2304 37.1614 33.2234C31.5381 33.2208 25.9149 33.226 20.2916 33.2208C19.5753 33.2524 18.8863 32.6319 18.9135 31.9007C18.8924 31.3452 19.2387 30.7757 19.7959 30.6377Z" fill="#D8D6D6"/>
<path d="M20.1335 37.4624C25.7505 37.4405 31.3685 37.4607 36.9856 37.4519C37.3591 37.4475 37.7626 37.4563 38.0842 37.6743C38.8278 38.1629 38.8146 39.4453 38.0473 39.9067C37.7063 40.122 37.2897 40.1071 36.903 40.1018C31.365 40.1009 25.827 40.1018 20.289 40.1009C19.8504 40.1132 19.3837 39.9427 19.1377 39.5639C18.83 39.0955 18.8406 38.4363 19.15 37.9713C19.3653 37.6488 19.7555 37.4844 20.1335 37.4624Z" fill="#D8D6D6"/>
<path d="M44.4071 57.7914C45.5567 57.5594 46.795 57.823 47.7469 58.5095C48.8113 59.2574 49.5267 60.4923 49.6049 61.7948C49.677 62.8372 49.343 63.8937 48.7032 64.7163C47.9658 65.6805 46.8197 66.33 45.6041 66.4223C44.2559 66.5471 42.883 65.9661 41.9936 64.9545C41.1226 63.9903 40.7165 62.6245 40.9477 61.3431C41.2351 59.6011 42.6765 58.1307 44.4071 57.7914ZM44.756 60.429C44.0107 60.6584 43.4578 61.4274 43.5369 62.2132C43.602 63.1018 44.4492 63.8541 45.3422 63.7882C46.2853 63.7504 47.0833 62.8258 46.9576 61.8845C46.8592 60.8685 45.7377 60.0915 44.756 60.429Z" fill="#D8D6D6"/>
</svg>
