<svg width="101" height="100" viewBox="0 0 101 100" fill="none" xmlns="http://www.w3.org/2000/svg">
<path d="M83.5914 7.7038C83.9735 7.30355 84.4656 6.94201 85.0605 7.01093C86.0908 7.49461 86.7728 8.45712 87.5878 9.2177C88.8139 10.5285 90.2056 11.6845 91.3459 13.0726C91.9541 13.7352 91.3943 14.6107 90.8526 15.0859C82.9287 23.0037 75.0061 30.9239 67.0908 38.8501C66.4705 39.4644 65.595 39.699 64.7933 39.9674C63.7836 40.2927 62.7897 40.6905 61.7365 40.8525C61.2165 40.7909 60.8368 40.3628 60.4003 40.1089C59.3653 41.127 58.3374 42.1536 57.3072 43.1778C56.693 42.5369 56.0678 41.9081 55.4451 41.277C56.4838 40.2782 57.4983 39.2528 58.5067 38.2237C58.2722 37.8441 57.9287 37.5127 57.8139 37.0738C57.7329 36.2104 58.1537 35.4257 58.4003 34.6264C58.8187 33.5478 58.9626 32.312 59.832 31.4692C67.7522 23.5478 75.6796 15.6337 83.5914 7.7038ZM84.7849 10.2431C80.046 15.0472 75.2371 19.7812 70.4898 24.5768C71.6083 25.8235 72.7945 27.0109 74.0497 28.121C78.8405 23.3556 83.6204 18.578 88.3834 13.7848C87.2069 12.5817 86.0388 11.3676 84.7849 10.2431ZM63.0255 32.0436C64.1936 33.2431 65.3786 34.4257 66.5769 35.5938C68.4318 33.7715 70.2649 31.9275 72.0932 30.0786C70.9747 28.8308 69.7861 27.6445 68.5333 26.5321C66.6821 28.3543 64.8489 30.1947 63.0255 32.0436ZM61.3991 34.2092C61.15 34.9638 60.8997 35.7195 60.6506 36.4741C61.1609 36.9601 61.653 37.4644 62.1416 37.9747C62.9009 37.7268 63.6555 37.468 64.4112 37.2092C63.4221 36.1935 62.4221 35.1899 61.3991 34.2092Z" fill="#D8D6D6"/>
<path d="M10.4886 14.1596C10.8514 11.613 13.3399 9.60455 15.907 9.79803C17.3193 9.76659 18.7329 9.74361 20.144 9.81254C20.5611 9.83793 20.9541 10.1584 21.046 10.5683C21.248 12.9516 20.9904 15.3458 21.1452 17.7315C21.1778 17.7642 21.2419 17.8283 21.2746 17.8597C22.8707 17.9588 24.4705 17.8863 26.0678 17.8972C40.2153 17.896 54.3628 17.8948 68.5104 17.8972C68.5092 18.7835 68.5092 19.6686 68.5104 20.555C52.7111 20.5586 36.9106 20.5538 21.1113 20.5574C21.1089 34.8657 21.1101 49.1741 21.1113 63.4824C21.0992 65.0882 21.1742 66.6977 21.0714 68.3035C21.0158 68.7484 20.6446 69.1209 20.2129 69.2188C18.566 69.3833 16.9033 69.1922 15.2576 69.3543C13.8755 69.5683 12.8671 70.9842 13.0799 72.3579C13.1996 73.7847 14.6047 74.8863 16.0267 74.7206C28.1198 74.7412 40.2141 74.7194 52.3072 74.7291C52.3072 75.6142 52.3072 76.5006 52.3072 77.3869C40.2141 77.3869 28.121 77.3917 16.0279 77.3869C14.1416 77.4836 12.2177 76.5622 11.2202 74.9395C10.5757 73.9081 10.3217 72.6723 10.352 71.4655C10.3374 53.5284 10.3616 35.5913 10.3411 17.6541C10.3737 16.4897 10.2322 15.3059 10.4886 14.1596ZM14.832 12.584C13.5152 13.0205 12.8913 14.5308 13.0001 15.8379C13.0279 32.9806 12.9868 50.1233 13.0206 67.2648C13.4148 67.1269 13.8042 66.9734 14.2069 66.8597C15.5793 66.4304 17.0376 66.6735 18.4487 66.6215C18.4511 48.5647 18.4499 30.5078 18.4499 12.4498C17.2455 12.4728 16.0206 12.3603 14.832 12.584Z" fill="#D8D6D6"/>
<path d="M23.9275 24.4401C24.0049 23.7811 24.6494 23.2091 25.3411 23.3518C26.6712 23.2926 28.0025 23.3349 29.3338 23.3397C29.3326 24.2236 29.3326 25.1088 29.3326 25.9939C28.4064 25.9951 27.4813 25.9987 26.5563 26.0011C26.5515 26.8863 26.5515 27.7714 26.5478 28.6577C25.6615 28.6577 24.7776 28.6577 23.8925 28.6577C23.89 27.2514 23.8344 25.8439 23.9275 24.4401Z" fill="#D8D6D6"/>
<path d="M80.8453 27.3277C81.7304 27.3265 82.6168 27.3277 83.5031 27.3277C83.5043 33.6554 83.5055 39.9843 83.5031 46.312C82.6156 46.312 81.7304 46.312 80.8453 46.312C80.8429 39.9831 80.8429 33.6554 80.8453 27.3277Z" fill="#D8D6D6"/>
<path d="M40.3822 31.965C40.8199 31.3809 41.6216 31.4499 42.2673 31.4366C46.9843 31.4317 51.7014 31.4426 56.4184 31.4402C56.4184 32.3253 56.4172 33.2116 56.4184 34.098C52.3834 34.1077 48.3483 34.0859 44.3132 34.1077C47.1899 37.728 50.1077 41.3156 52.959 44.9553C59.0375 45.0085 65.1174 44.9819 71.196 44.9686C70.4547 43.9904 69.6833 43.0363 68.9396 42.0617C69.6083 41.4692 70.3108 40.9166 71.0242 40.3797C72.3797 42.2407 74.0182 43.8985 75.2213 45.8634C75.3822 49.1524 75.2334 52.4511 75.2806 55.7437C74.3931 55.7437 73.5067 55.7425 72.6216 55.7437C72.6204 53.0436 72.6216 50.3435 72.6204 47.6433C66.2927 47.6409 59.965 47.6409 53.6385 47.6433C53.6361 52.1572 53.6349 56.6699 53.6385 61.1838C57.7087 61.1899 61.7788 61.1802 65.8501 61.1863C65.8489 62.0714 65.8489 62.9577 65.8501 63.8441C54.3616 63.8489 42.8731 63.8392 31.3846 63.8513C30.7993 63.7957 30.0557 63.965 29.6567 63.4003C29.1899 63.0061 29.4172 62.3108 29.3278 61.7933C29.3338 56.7522 29.3326 51.711 29.3265 46.6699C29.1524 45.9081 29.7219 45.3616 30.121 44.8078C33.5454 40.5297 36.9783 36.2576 40.3822 31.965ZM41.4704 34.9178C38.8271 38.2733 36.0774 41.5478 33.5067 44.9589C38.8525 45.0061 44.1984 44.9795 49.5442 44.9722C46.8683 41.6095 44.2238 38.2177 41.4704 34.9178ZM31.994 47.6433C31.9904 52.1572 31.9916 56.6711 31.994 61.185C33.3628 61.1838 34.7328 61.185 36.1028 61.1863C36.1355 58.0823 36.0496 54.9771 36.1246 51.8743C35.9638 50.9952 36.8138 50.2334 37.6712 50.4281C40.4777 50.4354 43.2903 50.341 46.0932 50.4849C46.7739 50.6264 46.9021 51.5393 46.8707 52.1101C46.8876 55.1343 46.8477 58.1597 46.8671 61.185C48.2359 61.1838 49.6059 61.185 50.9759 61.1863C50.9783 56.6724 50.9783 52.1572 50.9759 47.6433C44.6482 47.6409 38.3217 47.6409 31.994 47.6433ZM38.7655 53.0835C38.7606 55.7836 38.7619 58.4837 38.7667 61.1838C40.5781 61.1863 42.3906 61.1875 44.2044 61.185C44.208 58.4849 44.208 55.7848 44.2032 53.0847C42.3906 53.0811 40.5781 53.0798 38.7655 53.0835Z" fill="#D8D6D6"/>
<path d="M89.7219 43.7001C90.6893 43.3071 91.7921 44.1935 91.5877 45.2237C91.6385 58.9287 91.5793 72.6348 91.6168 86.341C91.699 87.1149 91.4197 88.1536 90.4946 88.2225C88.8924 88.341 87.2842 88.2588 85.6808 88.2721C73.3858 88.2709 61.0907 88.2672 48.7957 88.2757C47.9227 88.4438 46.8114 87.8138 46.9735 86.8126C46.942 86.2164 47.5285 85.8235 47.8574 85.3954C61.6542 71.6215 75.4281 57.8247 89.2189 44.046C89.3652 43.9081 89.5261 43.7666 89.7219 43.7001ZM51.5575 85.5986C64.0013 85.6312 76.4463 85.5925 88.89 85.6179C88.9602 84.4474 88.9384 83.2745 88.9565 82.104C88.9203 70.8077 88.9759 59.5115 88.9287 48.2152C76.4632 60.6687 63.9916 73.1149 51.5575 85.5986Z" fill="#D8D6D6"/>
<path d="M59.9735 50.4874C62.0484 50.3556 64.1355 50.3931 66.2141 50.4354C66.7304 50.4499 67.063 50.9396 67.1319 51.4124C67.2443 53.2178 67.2056 55.0291 67.1706 56.8381C67.1899 57.3677 67.0509 58.2238 66.4076 58.3423C64.3689 58.4741 62.3229 58.4209 60.2818 58.4028C59.6688 58.4064 59.1935 57.849 59.1464 57.2661C59.011 55.4705 59.0472 53.6676 59.0896 51.8695C59.1137 51.3109 59.3773 50.6361 59.9735 50.4874ZM61.7389 53.0823C61.7377 53.9687 61.7377 54.8562 61.7377 55.7438C62.6651 55.7425 63.5914 55.7425 64.52 55.745C64.5188 54.8562 64.52 53.9699 64.5212 53.0835C63.5926 53.0835 62.6651 53.0823 61.7389 53.0823Z" fill="#D8D6D6"/>
<path d="M23.8937 63.9662C24.7776 63.965 25.6615 63.965 26.5466 63.9662C26.5515 64.8502 26.5515 65.7365 26.5551 66.6228C27.4813 66.624 28.4076 66.6265 29.3338 66.6301C29.3326 67.514 29.3326 68.3979 29.3326 69.2843C27.9215 69.2867 26.5103 69.3411 25.1016 69.2637C24.5043 69.2105 24.0001 68.7873 23.9372 68.1754C23.8272 66.7752 23.8912 65.3689 23.8937 63.9662Z" fill="#D8D6D6"/>
<path d="M81.6241 64.023C82.0993 63.9021 82.7027 63.8924 83.0594 64.2902C83.5757 64.8005 83.4499 65.607 83.5056 66.26C83.4947 70.2914 83.537 74.3241 83.485 78.3543C83.5781 79.1294 83.1114 80.0968 82.2456 80.1113C78.2347 80.26 74.2153 80.1197 70.202 80.1802C69.4427 80.1064 68.6083 80.2818 67.9022 79.9323C67.1065 79.5224 67.0618 78.2588 67.7583 77.7268C72.1525 73.2927 76.5999 68.9105 80.9856 64.4692C81.173 64.2902 81.3738 64.1076 81.6241 64.023ZM76.0981 73.1258C74.6773 74.5792 73.1767 75.9553 71.8308 77.4813C74.8163 77.5417 77.803 77.4922 80.7885 77.5176C80.9022 74.5103 80.8538 71.4994 80.803 68.4922C79.173 69.9734 77.67 71.5853 76.0981 73.1258Z" fill="#D8D6D6"/>
</svg>
