<svg width="101" height="100" viewBox="0 0 101 100" fill="none" xmlns="http://www.w3.org/2000/svg">
<path d="M66.096 7.54005C67.2386 7.34083 68.4095 7.26856 69.5638 7.40333C70.472 7.49317 71.3548 7.73438 72.2406 7.94337C73.2835 8.19239 74.3138 8.55567 75.2103 9.15626C76.4437 9.96973 77.6497 10.8584 78.639 11.9639C79.2132 12.7227 79.6663 13.5645 80.1937 14.3555C79.0999 14.3555 78.0072 14.3565 76.9134 14.3545C76.6136 13.7637 76.1829 13.2422 75.6527 12.8438C74.6966 12.1865 73.6995 11.5772 72.6204 11.1426C71.3255 10.6104 69.931 10.3545 68.5364 10.2988C66.845 10.2871 65.1517 10.6162 63.5823 11.2441C63.3695 11.3272 63.1575 11.4111 62.9447 11.4912L62.9241 11.5889C62.8782 11.5762 62.7864 11.5498 62.7405 11.5371L62.7415 11.6436C62.5999 11.6826 62.4593 11.7236 62.3196 11.7647L62.3441 11.8945C62.2972 11.877 62.2025 11.8399 62.1546 11.8213L62.1527 11.9766C62.1068 11.9658 62.014 11.9443 61.9681 11.9336L61.9534 12.0674C61.9193 12.0654 61.8499 12.0606 61.8157 12.0586C61.5062 12.2539 61.1702 12.4053 60.8646 12.6074C60.556 12.7813 60.262 12.9775 59.9827 13.1934C59.6077 13.3115 59.3109 13.5762 58.9857 13.7832C58.0179 14.3926 57.097 15.1113 56.0091 15.4981L55.9954 15.5479C55.8148 15.5908 55.6409 15.6563 55.4749 15.7383C55.2122 15.8301 54.9495 15.9209 54.6937 16.0293C54.595 16.0615 54.4974 16.0928 54.3997 16.125C54.3011 16.1572 54.2044 16.1904 54.1087 16.2256C51.678 16.9883 49.1019 17.3799 46.5609 17.0684C45.4808 16.915 44.39 16.6729 43.4349 16.125C42.8626 15.7949 42.2943 15.457 41.7337 15.1074C41.139 14.7676 40.7523 14.1348 40.0843 13.9092C39.1849 13.6035 38.1917 13.5117 37.265 13.7549C36.2415 14.0234 35.2923 14.5273 34.4417 15.1484C33.9681 15.584 33.4886 16.0391 33.2044 16.627C32.9398 17.0869 32.8314 17.6084 32.7132 18.1191C32.5042 18.5693 32.1839 19.0274 31.6859 19.1777C31.2679 19.2969 30.8001 19.2647 30.4056 19.082C29.9114 18.7354 29.7337 18.0537 29.8792 17.4834C30.0638 16.7061 30.1927 15.8936 30.6029 15.1943C30.9241 14.6543 31.2835 14.1348 31.7044 13.667C32.14 13.1729 32.7083 12.8291 33.2347 12.4424C34.1077 11.8359 35.1546 11.5918 36.1771 11.3711C37.2376 11.083 38.3431 10.9609 39.4407 11.0166C40.4193 11.0273 41.389 11.3408 42.1956 11.8936C42.6273 12.165 42.9632 12.5615 43.4017 12.8242C44.2708 13.333 45.181 13.8057 46.1693 14.0322C48.015 14.3428 49.9154 14.2266 51.7445 13.8545C53.3782 13.4326 54.9525 12.7969 56.4554 12.0322C56.6663 11.9268 56.8704 11.8086 57.0589 11.666C58.2073 10.8057 59.3782 9.96094 60.6673 9.3213C62.3441 8.38087 64.2259 7.91309 66.096 7.54005Z" fill="#D8D6D6"/>
<path d="M72.0833 16.0498C72.5853 15.9151 73.0921 15.7598 73.6136 15.7227C76.3812 15.7207 79.1488 15.7237 81.9173 15.7217C82.3421 15.7256 82.7767 15.6866 83.1927 15.7998C83.6888 15.9375 84.2415 15.9678 84.6536 16.3096C85.2142 16.6592 85.6409 17.1924 85.9339 17.7774C86.0677 18.2569 86.1966 18.7451 86.265 19.2393C86.1937 19.7325 86.0687 20.2207 85.931 20.7002C85.5804 21.4434 84.9632 22.0401 84.2327 22.4073C83.9027 22.5196 83.5579 22.5772 83.221 22.6612C84.4554 35.3614 85.6927 48.0606 86.9271 60.7608C88.7406 60.7627 90.554 60.7618 92.3665 60.7608C92.8031 60.7764 93.2816 60.8448 93.6107 61.1602C94.0697 61.5596 94.1234 62.2217 94.1292 62.791C94.1224 71.0918 94.1283 79.3936 94.1263 87.6944C94.1136 88.3506 94.2142 89.0703 93.8577 89.6592C93.5511 90.17 92.9232 90.3252 92.3656 90.333C64.4691 90.3321 36.5716 90.3311 8.67513 90.333C8.0267 90.3418 7.27474 90.3711 6.77377 89.8829C6.30404 89.458 6.28451 88.7705 6.2972 88.1826C6.30111 79.9483 6.29916 71.7129 6.29818 63.4785C6.30892 63.0869 6.24642 62.667 6.42709 62.3037C6.68392 61.7793 7.05111 61.3067 7.49642 60.9297C10.4515 59.2442 13.3792 57.5049 16.3236 55.7979C21.3001 52.8936 26.2786 49.9932 31.2533 47.087C31.7074 46.8008 32.2591 46.5108 32.8079 46.6856C33.3372 46.7823 33.7757 47.2285 33.8744 47.7559C34.0033 48.2002 33.9691 48.667 33.9701 49.1241C33.9691 52.6651 33.971 56.2061 33.9691 59.7471C39.5081 56.5039 45.0658 53.291 50.596 50.0342C51.1585 44.1924 51.7337 38.3516 52.2982 32.5098C51.7923 32.3946 51.2513 32.3194 50.847 31.9629C50.3128 31.6514 49.9349 31.1446 49.6595 30.6016C49.5257 30.2393 49.4671 29.8555 49.3685 29.4834C49.2083 28.9805 49.4535 28.4805 49.5413 27.9883C49.6156 27.5176 49.9251 27.1455 50.1986 26.7744C50.4085 26.4922 50.724 26.3184 51.0033 26.1133C51.387 25.833 51.8753 25.7979 52.3206 25.6748C52.7689 25.5489 53.2376 25.5879 53.6986 25.586C56.431 25.585 59.1634 25.5869 61.8958 25.585C62.264 25.5811 62.6156 25.7012 62.972 25.7774C63.9867 25.9453 64.7874 26.752 65.2318 27.6426C65.3646 28.1211 65.4925 28.6075 65.5619 29.0996C65.4925 29.5918 65.3665 30.0782 65.2298 30.5567C64.8822 31.3047 64.2611 31.9043 63.5267 32.2715C63.1976 32.3828 62.8538 32.4405 62.5179 32.5244C63.4339 41.9375 64.346 51.3506 65.2669 60.7627C66.6097 60.7598 67.9515 60.7637 69.2943 60.7608C70.5296 48.0557 71.7679 35.3516 73.0013 22.6465C72.4935 22.5313 71.9515 22.4541 71.5462 22.0977C70.9994 21.7725 70.6029 21.2471 70.3392 20.6778C70.2083 20.2071 70.0745 19.7315 70.0111 19.2471C70.0677 18.7569 70.2074 18.2774 70.3353 17.8008C70.6761 17.0254 71.3099 16.3946 72.0833 16.0498ZM73.2562 18.5C72.887 18.625 72.6546 19.0557 72.766 19.4317C72.8548 19.8057 73.2445 20.0469 73.6185 20.0196C76.6488 20.0176 79.68 20.0225 82.7103 20.0176C83.1361 20.0391 83.5501 19.6739 83.5355 19.2373C83.5501 18.7998 83.141 18.419 82.7064 18.4571C79.8079 18.4551 76.9085 18.46 74.0101 18.4551C73.7581 18.461 73.5003 18.4317 73.2562 18.5ZM75.2367 29.9405C77.1527 29.9414 79.0687 29.9414 80.9847 29.9405C80.7503 27.545 80.5189 25.1494 80.2845 22.7539C78.8363 22.7539 77.387 22.7569 75.9388 22.752C75.7005 25.1485 75.472 27.545 75.2367 29.9405ZM52.5511 28.3633C52.0804 28.5166 51.8783 29.1524 52.179 29.5469C52.3861 29.8496 52.7728 29.9092 53.1136 29.8858C56.0745 29.877 59.0365 29.8877 61.9974 29.8809C62.4261 29.9063 62.848 29.541 62.8324 29.1006C62.847 28.6621 62.4378 28.2823 62.0033 28.3203C59.1038 28.3184 56.2054 28.3233 53.307 28.3184C53.055 28.3243 52.7962 28.294 52.5511 28.3633ZM75.0072 32.3057C74.0843 41.791 73.1615 51.2764 72.2386 60.7618C76.1536 60.7618 80.0677 60.7618 83.9818 60.7618C83.0599 51.2764 82.137 41.791 81.2142 32.3057C79.1449 32.3047 77.0765 32.3037 75.0072 32.3057ZM54.5335 39.8037C56.4495 39.8047 58.3656 39.8047 60.2816 39.8037C60.0472 37.4082 59.8158 35.0127 59.5814 32.6172C58.1322 32.6182 56.6829 32.6172 55.2337 32.6172C55.0003 35.0127 54.7679 37.4082 54.5335 39.8037ZM54.304 42.169C54.1058 44.1895 53.9134 46.2119 53.7132 48.2325C54.5091 47.7647 55.304 47.295 56.1058 46.836C56.6546 46.5284 57.3861 46.5772 57.8577 47.0039C58.2659 47.3535 58.3597 47.9229 58.3851 48.4327C58.3841 52.542 58.3841 56.6514 58.3841 60.7618C59.6956 60.7618 61.0081 60.7618 62.3197 60.7618C61.7171 54.5635 61.1146 48.3662 60.5111 42.169C58.4417 42.167 56.3734 42.167 54.304 42.169ZM9.22689 63.3106C9.2308 71.3409 9.22689 79.3711 9.22885 87.4024C10.9652 87.4024 12.7025 87.4024 14.4388 87.4024C14.4388 82.2276 14.4388 77.0537 14.4378 71.8799C14.4544 71.4151 14.5365 70.9063 14.8851 70.5674C15.224 70.2159 15.7357 70.1319 16.2015 70.1162C25.64 70.1182 35.0765 70.1182 44.514 70.1162C45.097 70.1192 45.7523 70.3028 46.0462 70.8535C46.3773 71.4991 46.2523 72.2461 46.2747 72.9434C46.2757 77.7627 46.2747 82.5821 46.2747 87.4024C61.2484 87.4024 76.223 87.4024 91.1966 87.4024C91.1966 79.4981 91.1966 71.5948 91.1966 63.6914C80.0306 63.6924 68.8646 63.6895 57.6986 63.6924C57.1214 63.7012 56.4681 63.7139 56.0042 63.3145C55.5775 62.9844 55.4661 62.416 55.4535 61.9073C55.4554 58.1348 55.4544 54.3623 55.4544 50.5899C48.2816 54.7774 41.1058 58.96 33.932 63.1465C33.6302 63.3203 33.3392 63.5313 32.9906 63.6006C32.4525 63.7588 31.8226 63.5899 31.4427 63.1739C31.1292 62.8379 31.0579 62.3565 31.0394 61.9151C31.0413 58.1407 31.0404 54.3653 31.0404 50.5899C23.7689 54.8301 16.5023 59.0782 9.22689 63.3106ZM17.3685 73.0469C17.3685 77.6045 17.3685 82.1612 17.3685 86.7188C21.1449 86.7188 24.9202 86.7188 28.6966 86.7188C28.6966 82.1612 28.6966 77.6045 28.6966 73.0469C24.9202 73.0469 21.1449 73.0469 17.3685 73.0469ZM32.0169 73.0469C32.0169 77.6045 32.0169 82.1612 32.0169 86.7188C35.7933 86.7188 39.5687 86.7188 43.3451 86.7188C43.3451 82.1612 43.3451 77.6045 43.3451 73.0469C39.5687 73.0469 35.7933 73.0469 32.0169 73.0469Z" fill="#D8D6D6"/>
<path d="M77.9378 39.1874C78.7786 39.0155 79.6624 39.6649 79.7562 40.5165C79.89 41.3437 79.2386 42.1845 78.4066 42.2694C77.5862 42.3954 76.7523 41.7577 76.6614 40.9335C76.5306 40.1317 77.137 39.3104 77.9378 39.1874Z" fill="#D8D6D6"/>
<path d="M77.9339 44.1691C78.8119 43.9855 79.7279 44.7013 79.766 45.5948C79.847 46.4279 79.1459 47.2257 78.3109 47.2589C77.5189 47.3302 76.7484 46.7023 76.6615 45.9122C76.5316 45.1124 77.1361 44.2931 77.9339 44.1691Z" fill="#D8D6D6"/>
<path d="M77.9368 49.1484C78.8148 48.9668 79.7308 49.6855 79.7659 50.5791C79.8441 51.4111 79.1439 52.206 78.3109 52.2392C77.5198 52.3105 76.7493 51.6836 76.6614 50.8935C76.5306 50.0918 77.137 49.2714 77.9368 49.1484Z" fill="#D8D6D6"/>
<path d="M57.2318 66.7285C58.5882 66.6592 59.9515 66.7187 61.3109 66.6992C69.7405 66.6972 78.1712 66.7021 86.6009 66.6972C87.096 66.7041 87.6487 66.7734 88.013 67.1465C88.3616 67.4834 88.4456 67.9902 88.4632 68.4541C88.4622 71.9707 88.4612 75.4873 88.4632 79.0039C88.4466 79.4873 88.3519 80.0205 87.9691 80.3554C87.4964 80.7851 86.8089 80.7695 86.2112 80.7627C76.6751 80.7597 67.139 80.7617 57.6019 80.7617C57.1556 80.7441 56.6702 80.6709 56.3333 80.3515C55.9564 80.0166 55.8607 79.4883 55.845 79.0088C55.845 75.4931 55.846 71.9785 55.8441 68.4629C55.8568 67.9521 55.9691 67.3799 56.4007 67.0527C56.6312 66.8496 56.9368 66.7802 57.2318 66.7285ZM58.7747 69.6289C58.7747 72.3633 58.7747 75.0976 58.7747 77.832C59.6859 77.832 60.597 77.832 61.5091 77.832C61.5091 75.0976 61.5091 72.3633 61.5091 69.6289C60.597 69.6289 59.6859 69.6289 58.7747 69.6289ZM64.1458 69.6289C64.1458 72.3633 64.1458 75.0976 64.1458 77.832C65.2855 77.832 66.4241 77.832 67.5638 77.832C67.5638 75.0976 67.5638 72.3633 67.5638 69.6289C66.4241 69.6289 65.2855 69.6289 64.1458 69.6289ZM70.2005 69.6289C70.2005 72.3633 70.2005 75.0976 70.2005 77.832C71.3402 77.832 72.4788 77.832 73.6185 77.832C73.6185 75.0976 73.6185 72.3633 73.6185 69.6289C72.4788 69.6289 71.3402 69.6289 70.2005 69.6289ZM76.2552 69.6289C76.2552 72.3633 76.2552 75.0976 76.2552 77.832C77.3948 77.832 78.5335 77.832 79.6732 77.832C79.6732 75.0976 79.6732 72.3633 79.6732 69.6289C78.5335 69.6289 77.3948 69.6289 76.2552 69.6289ZM82.3099 69.6289C82.3099 72.3633 82.3099 75.0976 82.3099 77.832C83.3841 77.832 84.4583 77.832 85.5325 77.832C85.5325 75.0976 85.5325 72.3633 85.5325 69.6289C84.4583 69.6289 83.3841 69.6289 82.3099 69.6289Z" fill="#D8D6D6"/>
<path d="M23.7484 76.5106C24.3519 76.2792 25.0892 76.5536 25.3988 77.121C25.6458 77.5204 25.6322 78.0419 25.4144 78.452C24.7132 79.869 24.0082 81.286 23.308 82.704C23.1283 83.0927 22.7796 83.4062 22.3558 83.497C21.8099 83.6288 21.1966 83.3837 20.9007 82.9032C20.6175 82.495 20.6146 81.9384 20.847 81.5067C21.5462 80.0937 22.2494 78.6835 22.9466 77.2704C23.1068 76.9276 23.3851 76.6347 23.7484 76.5106Z" fill="#D8D6D6"/>
<path d="M59.2054 82.4767C60.0843 82.2247 61.0785 82.8731 61.1957 83.7804C61.3539 84.6261 60.7142 85.5079 59.8607 85.6202C59.016 85.7784 58.1273 85.1446 58.015 84.2901C57.8646 83.4933 58.4203 82.6612 59.2054 82.4767Z" fill="#D8D6D6"/>
<path d="M65.2611 82.4755C66.14 82.2255 67.1322 82.872 67.2503 83.7793C67.4095 84.6269 66.7669 85.5097 65.9115 85.6201C65.0658 85.7763 64.18 85.1406 64.0687 84.2871C63.9203 83.4902 64.4769 82.6601 65.2611 82.4755Z" fill="#D8D6D6"/>
<path d="M71.3177 82.4757C72.1966 82.2257 73.1878 82.8741 73.305 83.7804C73.4632 84.627 72.8226 85.5079 71.9691 85.6202C71.1244 85.7774 70.2367 85.1436 70.1244 84.2901C69.974 83.4923 70.5316 82.6593 71.3177 82.4757Z" fill="#D8D6D6"/>
<path d="M77.3714 82.4757C78.2825 82.214 79.306 82.924 79.3714 83.8712C79.4837 84.7286 78.7855 85.5743 77.9241 85.632C77.0716 85.7384 76.2239 85.049 76.1663 84.1906C76.0706 83.4201 76.6214 82.6534 77.3714 82.4757Z" fill="#D8D6D6"/>
<path d="M83.4242 82.4765C84.3031 82.2255 85.2953 82.871 85.4144 83.7772C85.5746 84.6249 84.933 85.5077 84.0794 85.62C83.2308 85.7782 82.3402 85.1386 82.2318 84.2811C82.0873 83.4862 82.6429 82.6601 83.4242 82.4765Z" fill="#D8D6D6"/>
</svg>
