<svg width="89" height="88" viewBox="0 0 89 88" fill="none" xmlns="http://www.w3.org/2000/svg">
<path d="M24.752 1.95608C24.684 0.688084 26.128 -0.293916 27.282 0.192084C28.046 0.412084 28.582 1.17208 28.53 1.96608C28.548 5.33008 28.58 8.69409 28.538 12.0601C31.272 12.0541 34.004 12.0621 36.738 12.0641C36.718 8.76608 36.722 5.47008 36.748 2.17208C36.714 1.41608 37.05 0.582084 37.798 0.292084C38.586 -0.155916 39.644 0.134084 40.184 0.832084C40.612 1.39208 40.538 2.13608 40.566 2.80008C40.554 5.88808 40.524 8.97408 40.562 12.0621C43.284 12.0661 46.004 12.0481 48.726 12.0621C48.756 8.83208 48.722 5.60208 48.728 2.37408C48.69 1.55008 48.974 0.590084 49.816 0.272084C50.902 -0.333916 52.52 0.486084 52.518 1.77208C52.564 5.20008 52.572 8.63008 52.538 12.0601C55.272 12.0541 58.004 12.0621 60.738 12.0641C60.718 8.77008 60.724 5.47608 60.748 2.18208C60.714 1.42408 61.044 0.584084 61.796 0.294084C62.586 -0.157916 63.646 0.138084 64.188 0.836084C64.612 1.39608 64.536 2.14008 64.566 2.80008C64.554 5.88808 64.524 8.97608 64.564 12.0641C65.764 12.0761 66.978 11.9841 68.168 12.2121C71.928 12.7201 75.206 15.6581 76.186 19.3141C76.658 20.8501 76.546 22.4741 76.562 24.0601C79.898 24.0701 83.232 24.0421 86.568 24.0661C87.364 24.0761 88.2 24.5361 88.446 25.3321C88.598 25.9661 88.584 26.7141 88.142 27.2381C87.714 27.7601 87.012 27.9721 86.356 27.9461C83.084 27.9261 79.812 27.9521 76.542 27.9401C76.562 30.6461 76.568 33.3521 76.538 36.0601C79.812 36.0521 83.084 36.0701 86.356 36.0541C87.178 36.0041 88.084 36.3961 88.404 37.1981C88.65 37.9341 88.576 38.8581 87.974 39.4061C87.532 39.7881 86.932 39.9581 86.354 39.9401C83.092 39.9481 79.83 39.9361 76.568 39.9381C76.53 42.6461 76.54 45.3521 76.564 48.0601C79.826 48.0641 83.088 48.0521 86.35 48.0601C87.164 48.0261 88.078 48.3981 88.394 49.2001C88.632 49.8801 88.6 50.7401 88.09 51.2941C87.662 51.7801 86.992 51.9661 86.364 51.9461C83.09 51.9261 79.816 51.9521 76.54 51.9381C76.52 52.8081 76.596 53.6841 76.476 54.5501C76.236 55.6681 74.802 56.2701 73.812 55.7261C72.972 55.4061 72.688 54.4421 72.728 53.6201C72.742 43.1481 72.726 32.6741 72.736 22.2021C72.776 20.4581 72.05 18.7481 70.806 17.5361C69.746 16.6041 68.39 15.9641 66.962 15.9401C52.016 15.9421 37.07 15.9381 22.126 15.9421C20 16.1021 18.03 17.5021 17.136 19.4321C16.676 20.3461 16.586 21.3861 16.544 22.3941C16.564 35.4621 16.538 48.5321 16.558 61.6001C16.564 63.4001 16.438 65.2141 16.666 67.0061C16.92 68.9041 18.228 70.5201 19.876 71.4341C20.602 71.7321 21.35 72.0321 22.146 72.0581C37.082 72.0601 52.018 72.0581 66.956 72.0601C69.682 72.0121 72.138 69.8361 72.608 67.1661C72.902 65.3281 72.612 63.4581 72.8 61.6121C72.892 60.6781 73.832 60.0741 74.716 60.0681C78.524 60.0361 82.334 60.0801 86.144 60.0521C86.788 60.0241 87.492 60.1261 87.978 60.5901C88.584 61.1361 88.654 62.0701 88.394 62.8001C88.078 63.5981 87.168 63.9741 86.356 63.9401C83.094 63.9481 79.83 63.9361 76.568 63.9381C76.538 65.4621 76.66 67.0221 76.236 68.5061C75.408 71.8381 72.688 74.6061 69.388 75.5341C67.822 75.9901 66.182 75.9601 64.568 75.9381C64.516 79.0241 64.558 82.1121 64.566 85.1981C64.538 85.8621 64.612 86.6081 64.182 87.1721C63.64 87.8661 62.582 88.1561 61.796 87.7061C61.042 87.4141 60.718 86.5761 60.748 85.8181C60.722 82.5241 60.722 79.2301 60.734 75.9361C58.002 75.9361 55.272 75.9501 52.542 75.9381C52.568 79.3661 52.566 82.7961 52.518 86.2241C52.522 87.5121 50.902 88.3341 49.816 87.7261C49.054 87.4381 48.718 86.5961 48.736 85.8321C48.706 82.5341 48.768 79.2341 48.722 75.9361C46.004 75.9541 43.286 75.9321 40.568 75.9381C40.502 79.2321 40.584 82.5261 40.552 85.8201C40.582 86.5761 40.254 87.4141 39.504 87.7061C38.528 88.2681 37.254 87.6881 36.822 86.7021C36.638 83.1181 36.762 79.5241 36.734 75.9361C34.002 75.9361 31.272 75.9501 28.542 75.9381C28.568 79.3701 28.566 82.8021 28.518 86.2321C28.512 87.5181 26.896 88.3341 25.812 87.7241C25.058 87.4341 24.716 86.5981 24.738 85.8381C24.704 82.5381 24.768 79.2361 24.722 75.9361C23.464 75.9301 22.192 76.0261 20.95 75.7641C17.108 75.1441 13.826 72.0181 12.988 68.2241C12.642 66.8241 12.75 65.3681 12.722 63.9381C9.46199 63.9521 6.20399 63.9281 2.94599 63.9461C2.25399 63.9641 1.49199 63.7301 1.08599 63.1361C0.705988 62.6221 0.717988 61.9301 0.851988 61.3341C1.11799 60.4601 2.07799 60.0221 2.93599 60.0601C6.20199 60.0541 9.46999 60.0601 12.738 60.0641C12.72 57.3541 12.726 54.6441 12.734 51.9361C9.80599 51.9381 6.87999 51.9481 3.95199 51.9401C3.19199 51.9261 2.37199 52.0421 1.67999 51.6501C1.27399 51.4601 1.05399 51.0561 0.815988 50.7001C0.805988 50.1541 0.675988 49.5541 0.967988 49.0581C1.32399 48.3321 2.18799 48.0241 2.95399 48.0541C6.20999 48.0721 9.46599 48.0481 12.722 48.0621C12.738 45.3541 12.742 42.6461 12.722 39.9381C9.46399 39.9521 6.20799 39.9261 2.95199 39.9461C2.18799 39.9701 1.32199 39.6681 0.969988 38.9421C0.675988 38.4441 0.803988 37.8441 0.817988 37.2981C1.16399 36.5661 1.90799 36.0621 2.72599 36.0681C6.06199 36.0441 9.39999 36.0661 12.738 36.0641C12.72 33.3541 12.726 30.6441 12.734 27.9361C9.39799 27.9361 6.06399 27.9561 2.72999 27.9341C1.90999 27.9321 1.16399 27.4341 0.815988 26.7001C0.805988 26.1541 0.675988 25.5541 0.969988 25.0581C1.31999 24.3361 2.17799 24.0321 2.93599 24.0541C6.19799 24.0721 9.45999 24.0501 12.722 24.0601C12.744 22.6281 12.644 21.1681 12.992 19.7641C13.826 16.0281 17.026 12.9321 20.802 12.2641C22.09 11.9761 23.416 12.0641 24.726 12.0621C24.774 8.69408 24.686 5.32208 24.752 1.95608Z" fill="white"/>
<path d="M22.052 20.1701C22.656 19.9241 23.346 20.1161 23.854 20.4861C24.686 21.1101 24.748 22.4481 24.132 23.2421C23.53 23.9301 22.444 24.1481 21.658 23.6381C20.29 22.9281 20.528 20.5461 22.052 20.1701Z" fill="white"/>
<path d="M66.226 20.1301C66.792 19.9481 67.396 20.1861 67.866 20.5041C68.56 21.0221 68.666 22.0241 68.406 22.7981C67.93 23.9801 66.246 24.2861 65.338 23.4241C64.266 22.4621 64.74 20.3741 66.226 20.1301Z" fill="white"/>
<path d="M26.62 25.6741C27.708 24.6161 29.236 24.1061 30.732 24.0621C34.606 24.0481 38.478 24.0721 42.352 24.0541C43.17 24.0181 44.082 24.3921 44.402 25.1961C44.69 26.0101 44.538 27.0901 43.754 27.5741C43.044 28.0581 42.16 27.9261 41.352 27.9421C37.744 27.9481 34.138 27.9301 30.53 27.9441C29.71 27.8941 29.164 28.5701 28.684 29.1281C28.582 29.7501 28.554 30.3781 28.57 31.0081C28.564 39.8741 28.566 48.7401 28.57 57.6061C28.568 58.0301 28.624 58.4521 28.684 58.8721C29.14 59.3801 29.612 60.0301 30.368 60.0461C32.49 60.0761 34.614 60.0521 36.738 60.0641C36.72 54.5701 36.734 49.0781 36.73 43.5841C35.53 43.1081 34.41 42.3501 33.708 41.2461C32.474 39.4241 32.43 36.8941 33.55 35.0101C34.364 33.6141 35.76 32.5621 37.352 32.2421C39.97 31.5641 42.91 33.0341 44.006 35.4961C44.872 37.3481 44.716 39.6641 43.528 41.3421C42.824 42.4001 41.73 43.1201 40.57 43.5881C40.5 47.5941 40.598 51.6001 40.538 55.6061C40.514 57.8181 40.636 60.0321 40.518 62.2401C40.494 63.2421 39.512 63.9421 38.566 63.9341C35.888 63.9481 33.208 63.9501 30.53 63.9301C28.56 63.8581 26.64 62.8181 25.624 61.1101C25.048 60.1841 24.73 59.0981 24.76 58.0081C24.742 48.6721 24.742 39.3361 24.76 29.9981C24.714 28.3761 25.438 26.7741 26.62 25.6741ZM37.112 36.5461C36.972 36.7301 36.832 36.9161 36.69 37.1001C36.484 37.9081 36.524 38.8081 37.088 39.4701C37.96 40.2841 39.336 40.2821 40.21 39.4721C40.8 38.8141 40.784 37.9181 40.63 37.1041C40.128 36.5461 39.572 35.8601 38.74 35.9161C38.12 35.8401 37.572 36.1741 37.112 36.5461Z" fill="white"/>
<path d="M48.85 25.338C49.104 24.45 50.08 24.01 50.944 24.054C53.412 24.062 55.88 24.066 58.348 24.054C59.968 24.042 61.618 24.62 62.778 25.772C63.914 26.856 64.59 28.428 64.54 30.004C64.558 39.336 64.558 48.668 64.54 58.002C64.614 60.208 63.246 62.356 61.258 63.294C60.062 63.924 58.676 63.986 57.352 63.944C53.81 63.924 50.268 63.96 46.728 63.932C45.91 63.936 45.164 63.434 44.814 62.702C44.806 62.154 44.676 61.554 44.968 61.056C45.328 60.33 46.194 60.03 46.96 60.054C50.894 60.068 54.826 60.052 58.76 60.06C59.584 60.12 60.132 59.442 60.616 58.882C60.714 58.264 60.744 57.636 60.728 57.01C60.732 48.342 60.732 39.672 60.726 31.004C60.744 30.374 60.716 29.742 60.616 29.118C60.158 28.612 59.686 27.962 58.934 27.948C56.804 27.918 54.672 27.96 52.542 27.938C52.56 33.426 52.558 38.914 52.542 44.402C53.764 44.868 54.892 45.644 55.592 46.768C56.782 48.554 56.882 51.012 55.822 52.88C55.022 54.326 53.582 55.388 51.976 55.76C49.354 56.45 46.4 54.956 45.288 52.508C44.348 50.522 44.646 48.016 46.038 46.314C46.716 45.422 47.694 44.828 48.72 44.414C48.746 38.874 48.736 33.334 48.724 27.796C48.736 26.976 48.662 26.142 48.85 25.338ZM49.164 48.364C48.594 49.088 48.348 50.022 48.696 50.904C48.862 51.144 49.02 51.39 49.176 51.638C49.672 51.866 50.178 52.156 50.744 52.104C51.24 52.102 51.68 51.838 52.122 51.64C52.278 51.39 52.44 51.142 52.614 50.906C52.812 50.308 52.788 49.684 52.6 49.088C52.434 48.85 52.278 48.61 52.122 48.366C51.682 48.172 51.246 47.9 50.75 47.902C50.176 47.84 49.67 48.146 49.164 48.364Z" fill="white"/>
<path d="M20.816 65.2982C21.168 64.5602 21.932 64.0442 22.76 64.0682C23.438 64.1642 24.144 64.5302 24.396 65.2062C24.718 66.0622 24.508 67.2082 23.638 67.6562C22.67 68.2882 21.196 67.7702 20.846 66.6702C20.732 66.2202 20.798 65.7542 20.816 65.2982Z" fill="white"/>
<path d="M66.096 64.1621C67.244 63.7441 68.666 64.7461 68.53 66.0021C68.67 67.3801 66.966 68.3981 65.798 67.7061C64.28 67.0961 64.472 64.5101 66.096 64.1621Z" fill="white"/>
</svg>
