<svg width="15" height="14" viewBox="0 0 15 14" fill="none" xmlns="http://www.w3.org/2000/svg">
<path d="M10.375 10.8438C10.375 10.7168 10.3286 10.6069 10.2358 10.5142C10.1431 10.4214 10.0332 10.375 9.90625 10.375C9.7793 10.375 9.66943 10.4214 9.57666 10.5142C9.48389 10.6069 9.4375 10.7168 9.4375 10.8438C9.4375 10.9707 9.48389 11.0806 9.57666 11.1733C9.66943 11.2661 9.7793 11.3125 9.90625 11.3125C10.0332 11.3125 10.1431 11.2661 10.2358 11.1733C10.3286 11.0806 10.375 10.9707 10.375 10.8438ZM12.25 10.8438C12.25 10.7168 12.2036 10.6069 12.1108 10.5142C12.0181 10.4214 11.9082 10.375 11.7812 10.375C11.6543 10.375 11.5444 10.4214 11.4517 10.5142C11.3589 10.6069 11.3125 10.7168 11.3125 10.8438C11.3125 10.9707 11.3589 11.0806 11.4517 11.1733C11.5444 11.2661 11.6543 11.3125 11.7812 11.3125C11.9082 11.3125 12.0181 11.2661 12.1108 11.1733C12.2036 11.0806 12.25 10.9707 12.25 10.8438ZM13.1875 9.20312V11.5469C13.1875 11.7422 13.1191 11.9082 12.9824 12.0449C12.8457 12.1816 12.6797 12.25 12.4844 12.25H1.70312C1.50781 12.25 1.3418 12.1816 1.20508 12.0449C1.06836 11.9082 1 11.7422 1 11.5469V9.20312C1 9.00781 1.06836 8.8418 1.20508 8.70508C1.3418 8.56836 1.50781 8.5 1.70312 8.5H5.10889L6.09766 9.49609C6.38086 9.76953 6.71289 9.90625 7.09375 9.90625C7.47461 9.90625 7.80664 9.76953 8.08984 9.49609L9.08594 8.5H12.4844C12.6797 8.5 12.8457 8.56836 12.9824 8.70508C13.1191 8.8418 13.1875 9.00781 13.1875 9.20312ZM10.8071 5.03564C10.8901 5.23584 10.856 5.40674 10.7046 5.54834L7.42334 8.82959C7.33545 8.92236 7.22559 8.96875 7.09375 8.96875C6.96191 8.96875 6.85205 8.92236 6.76416 8.82959L3.48291 5.54834C3.33154 5.40674 3.29736 5.23584 3.38037 5.03564C3.46338 4.84521 3.60742 4.75 3.8125 4.75H5.6875V1.46875C5.6875 1.3418 5.73389 1.23193 5.82666 1.13916C5.91943 1.04639 6.0293 1 6.15625 1H8.03125C8.1582 1 8.26807 1.04639 8.36084 1.13916C8.45361 1.23193 8.5 1.3418 8.5 1.46875V4.75H10.375C10.5801 4.75 10.7241 4.84521 10.8071 5.03564Z" fill="#D8D6D6"/>
</svg>
