<svg width="40" height="40" viewBox="0 0 40 40" fill="none" xmlns="http://www.w3.org/2000/svg">
<path d="M0.5 20C0.5 12.7688 1.86007 7.93794 4.89901 4.89901C7.93794 1.86007 12.7688 0.5 20 0.5C27.2312 0.5 32.0621 1.86007 35.101 4.89901C38.1399 7.93794 39.5 12.7688 39.5 20C39.5 27.2312 38.1399 32.0621 35.101 35.101C32.0621 38.1399 27.2312 39.5 20 39.5C12.7688 39.5 7.93794 38.1399 4.89901 35.101C1.86007 32.0621 0.5 27.2312 0.5 20Z" stroke="#D8D6D6"/>
<path d="M22.2067 14.2344C23.0779 14.4044 23.8785 14.8304 24.5062 15.4581C25.1338 16.0857 25.5599 16.8864 25.7299 17.7576M22.2067 10.6666C24.0167 10.8677 25.7045 11.6782 26.9931 12.9652C28.2816 14.2521 29.0943 15.9389 29.2976 17.7486M28.4057 24.8663V27.5422C28.4067 27.7906 28.3558 28.0365 28.2563 28.2641C28.1568 28.4917 28.0108 28.696 27.8278 28.8639C27.6447 29.0318 27.4286 29.1597 27.1933 29.2393C26.958 29.3189 26.7087 29.3484 26.4613 29.3261C23.7166 29.0278 21.0802 28.0899 18.7638 26.5878C16.6087 25.2184 14.7816 23.3912 13.4122 21.2361C11.9048 18.9092 10.9667 16.26 10.6739 13.503C10.6516 13.2563 10.6809 13.0078 10.76 12.7731C10.839 12.5384 10.9661 12.3227 11.133 12.1398C11.3 11.9569 11.5032 11.8107 11.7298 11.7107C11.9563 11.6106 12.2012 11.5588 12.4489 11.5586H15.1247C15.5576 11.5543 15.9772 11.7076 16.3054 11.9899C16.6336 12.2721 16.848 12.6641 16.9086 13.0927C17.0215 13.949 17.231 14.7898 17.5329 15.5991C17.6529 15.9183 17.6789 16.2653 17.6078 16.5988C17.5366 16.9324 17.3714 17.2386 17.1316 17.4811L15.9988 18.6138C17.2685 20.8468 19.1174 22.6958 21.3504 23.9655L22.4832 22.8327C22.7257 22.5929 23.0319 22.4276 23.3654 22.3565C23.699 22.2854 24.046 22.3113 24.3652 22.4313C25.1744 22.7333 26.0152 22.9428 26.8716 23.0557C27.3048 23.1168 27.7005 23.3351 27.9834 23.6689C28.2663 24.0027 28.4166 24.4289 28.4057 24.8663Z" stroke="#D8D6D6" stroke-linecap="round" stroke-linejoin="round"/>
</svg>
