<svg width="41" height="40" viewBox="0 0 41 40" fill="none" xmlns="http://www.w3.org/2000/svg">
<path d="M0.817261 20C0.817261 12.7688 2.17733 7.93794 5.21627 4.89901C8.25521 1.86007 13.0861 0.5 20.3173 0.5C27.5485 0.5 32.3793 1.86007 35.4183 4.89901C38.4572 7.93794 39.8173 12.7688 39.8173 20C39.8173 27.2312 38.4572 32.0621 35.4183 35.101C32.3793 38.1399 27.5485 39.5 20.3173 39.5C13.0861 39.5 8.25521 38.1399 5.21627 35.101C2.17733 32.0621 0.817261 27.2312 0.817261 20Z" stroke="#D8D6D6"/>
<path d="M9.6506 30.6667L10.5101 28.1247C10.7967 27.307 11.0295 26.4715 11.3518 25.6716C11.4398 25.501 11.4857 25.3122 11.4857 25.1205C11.4857 24.9289 11.4398 24.74 11.3518 24.5695C10.3337 22.7036 9.91816 20.572 10.1616 18.4638C10.4051 16.3556 11.2957 14.3727 12.7127 12.7839C13.7415 11.6197 15.0254 10.7051 16.4658 10.1104C17.9061 9.51567 19.4647 9.25658 21.0217 9.35306C23.3816 9.43036 25.6386 10.3304 27.3966 11.8951C29.0591 13.3315 30.2191 15.2548 30.7095 17.3879C31.1189 19.1128 31.0695 20.9138 30.5662 22.6141C29.9508 24.7507 28.6413 26.6255 26.8415 27.9469C25.6499 28.8682 24.2677 29.5165 22.7941 29.8453C21.3205 30.1742 19.7919 30.1754 18.3177 29.849C17.3851 29.6628 16.4857 29.3393 15.6495 28.8891C15.5851 28.859 15.5148 28.8434 15.4436 28.8434C15.3724 28.8434 15.3021 28.859 15.2376 28.8891L10.4385 30.3823L9.6506 30.6667ZM12.3725 27.9825H12.5337L15.5421 27.0404C15.6466 27.0051 15.7599 27.0051 15.8644 27.0404C16.2942 27.2537 16.706 27.5203 17.1537 27.6981C18.9378 28.476 20.9403 28.6081 22.8124 28.0714C23.9135 27.7794 24.9448 27.2721 25.8458 26.5792C26.7468 25.8862 27.4993 25.0217 28.0592 24.0362C29.1703 22.1163 29.4981 19.8467 28.9751 17.6942C28.4522 15.5417 27.1183 13.67 25.2478 12.4639C23.5541 11.3732 21.5312 10.9009 19.5254 11.1279C17.5195 11.3549 15.6556 12.2671 14.2528 13.7082C13.1044 14.8723 12.3207 16.3418 11.9964 17.939C11.7416 19.0339 11.7133 20.1689 11.9134 21.275C12.1135 22.3811 12.5377 23.4354 13.1604 24.3739C13.2615 24.5402 13.3149 24.7308 13.3149 24.925C13.3149 25.1192 13.2615 25.3098 13.1604 25.4761C12.9276 26.2582 12.6769 27.1115 12.3725 27.9825Z" fill="#D8D6D6"/>
<path d="M25.6221 23.1332C25.6126 23.5252 25.5091 23.9061 25.3235 24.2319C25.1379 24.5577 24.8779 24.8152 24.5733 24.9747C24.2572 25.1779 23.9073 25.298 23.5478 25.3266C23.1884 25.3552 22.8279 25.2917 22.4914 25.1404C21.8469 24.8654 21.2147 24.552 20.5973 24.2013C19.7997 23.7042 19.0883 23.0359 18.4998 22.2309C17.832 21.3669 17.2588 20.408 16.7935 19.3765C16.4445 18.6617 16.2812 17.8422 16.3239 17.0194C16.3561 16.5946 16.4649 16.1826 16.643 15.8111C16.8212 15.4396 17.0646 15.117 17.357 14.8649C17.4919 14.7575 17.6485 14.694 17.811 14.6807C18.009 14.6619 18.2079 14.6619 18.4058 14.6807C18.4782 14.6915 18.5464 14.7269 18.602 14.7824C18.6576 14.838 18.6982 14.9115 18.7189 14.9938C18.8754 15.4173 19.0007 15.8409 19.1415 16.2828C19.2824 16.7248 19.3137 16.8721 19.4233 17.1483C19.5196 17.3005 19.5663 17.4884 19.5548 17.6776C19.5433 17.8669 19.4744 18.045 19.3607 18.1796C19.21 18.4112 19.0424 18.6268 18.8598 18.8241C18.793 18.886 18.748 18.9748 18.7336 19.0734C18.7191 19.172 18.7362 19.2735 18.7815 19.3581C19.2053 20.2636 19.7679 21.069 20.4408 21.7337C20.9232 22.1593 21.4491 22.5119 22.0061 22.7833C22.0639 22.8454 22.1392 22.8799 22.2175 22.8799C22.2957 22.8799 22.3711 22.8454 22.4288 22.7833L23.2115 21.7337C23.3837 21.5127 23.4619 21.4574 23.6811 21.5863L25.6065 22.7649C25.6325 22.8209 25.6474 22.8832 25.6501 22.9469C25.6529 23.0107 25.6433 23.0744 25.6221 23.1332Z" fill="#D8D6D6"/>
</svg>
